<svg width="369" height="250" viewBox="0 0 369 250" fill="none" xmlns="http://www.w3.org/2000/svg">
<g clip-path="url(#clip0_435_1587)">
<path fill-rule="evenodd" clip-rule="evenodd" d="M218.364 2.90594V11.08L218.374 11.101H220.501V7.63062C220.501 7.31703 220.584 7.06617 220.751 6.88847C220.918 6.70032 221.137 6.61669 221.429 6.61669C221.72 6.61669 221.939 6.70032 222.096 6.87802C222.252 7.05571 222.325 7.30658 222.325 7.62017V11.0905H224.452V7.18115C224.452 6.73168 224.368 6.33447 224.191 5.97907C224.014 5.62368 223.764 5.36236 223.44 5.16375C223.117 4.96515 222.752 4.87107 222.315 4.87107C221.877 4.87107 221.491 4.9756 221.168 5.19511C220.845 5.41462 220.615 5.71775 220.48 6.10451H220.417V2.90594H218.364ZM200.527 10.6829C200.527 12.1985 200.767 13.4947 201.236 14.5818C201.705 15.6584 202.372 16.4842 203.258 17.0486C204.145 17.6131 205.187 17.8953 206.396 17.8953C207.605 17.8953 208.648 17.6131 209.534 17.0486C210.42 16.4842 211.087 15.6584 211.556 14.5818C212.026 13.5051 212.255 12.1881 212.255 10.6829C212.255 9.17767 212.026 7.88152 211.556 6.79443C211.087 5.70734 210.41 4.88156 209.534 4.31711C208.658 3.75266 207.616 3.47043 206.396 3.47043C205.177 3.47043 204.134 3.75266 203.258 4.31711C202.383 4.88156 201.705 5.69688 201.236 6.78398C200.767 7.86062 200.527 9.16722 200.527 10.6829ZM208.2 14.08C207.763 14.8205 207.16 15.1968 206.391 15.1985C205.622 15.1968 205.019 14.8205 204.582 14.08C204.134 13.3274 203.915 12.2299 203.915 10.7247C203.915 9.21948 204.145 8.08013 204.582 7.30662C205.02 6.53311 205.625 6.1359 206.396 6.1359C207.168 6.14636 207.772 6.53311 208.21 7.30662C208.648 8.08013 208.867 9.22994 208.867 10.7247C208.867 12.2194 208.638 13.3379 208.2 14.08ZM197.202 3.65845H193.053L187.246 12.7524V15.3342H194.053V17.6966H197.202V15.3342H198.901V12.7315H197.202V3.65845ZM193.991 7.17059H194.106V12.7315H190.53V12.6165L193.991 7.17059ZM216.237 6.50165V9.12531C216.237 9.27165 216.279 9.38663 216.362 9.44935C216.446 9.51206 216.571 9.54342 216.748 9.54342C216.894 9.54342 217.113 9.53297 217.394 9.51206V11.1009C217.154 11.1532 216.821 11.1741 216.383 11.1845C215.632 11.1845 215.059 11.0277 214.684 10.735C214.298 10.4424 214.121 9.97199 214.121 9.34482V6.5121H213.329V4.96509H214.121V3.50169H216.247V4.96509H217.321V6.5121H216.247L216.237 6.50165ZM232.75 3.65845H237.118L241.861 17.6966H238.316L237.368 14.6862H232.489L231.54 17.6966H227.986L232.739 3.65845H232.75ZM234.991 7.12878H234.876L233.292 12.167H236.575L234.991 7.12878ZM246.729 9.44931L252.421 17.6966H255.225V3.65845H251.941V11.9057H251.827L246.197 3.65845H243.352V17.6966H246.635V9.44931H246.729ZM266.421 17.6966L260.729 9.44931H260.636V17.6966H257.352V3.65845H260.198L265.827 11.9057H265.942V3.65845H269.225V17.6966H266.421ZM271.352 3.65845V17.6966H274.636V3.65845H271.352ZM283.111 14.0172L286.301 3.65845H289.981L285.238 17.6966H280.87L276.116 3.65845H279.806L282.996 14.0172H283.111ZM301.167 6.35527V3.65845H291.482V17.707H301.187V15.0102H294.766V12.0207H300.666V9.32387H294.766V6.35527H301.167ZM308.995 3.65845C310.038 3.65845 310.945 3.8466 311.706 4.2229C312.467 4.5992 313.061 5.14275 313.468 5.84308C313.874 6.54342 314.083 7.36919 314.083 8.30995C314.083 9.27161 313.885 10.0869 313.468 10.7768C313.051 11.4667 312.446 11.9789 311.664 12.3343L314.593 17.6966H310.976L308.401 12.8674H306.567V17.6966H303.283V3.65845H308.995ZM310.674 8.30995C310.674 7.65142 310.476 7.16014 310.069 6.82565C309.663 6.49116 309.079 6.33437 308.297 6.33437H306.556V10.2333H308.297C309.882 10.2437 310.674 9.6061 310.674 8.30995ZM319.806 6.58533C320.16 6.32401 320.661 6.19858 321.317 6.19858V6.18812C321.974 6.18812 322.495 6.33446 322.871 6.61669C323.246 6.89892 323.454 7.30658 323.496 7.81876H326.665C326.665 6.96163 326.436 6.19858 325.998 5.54005C325.56 4.88152 324.935 4.36933 324.132 4.00349C323.329 3.63764 322.37 3.45994 321.328 3.45994C320.285 3.45994 319.337 3.63764 318.513 4.00349C317.69 4.36933 317.043 4.88152 316.574 5.54005C316.105 6.19858 315.876 6.95118 315.876 7.80831C315.876 9.78389 317.168 11.08 319.764 11.6863L321.234 12.0312C322.026 12.2089 322.6 12.418 322.964 12.6584C323.329 12.8988 323.517 13.2229 323.517 13.6201C323.506 14.08 323.298 14.4458 322.902 14.7176C322.506 14.9894 321.964 15.1253 321.276 15.1253C320.504 15.1253 319.889 14.958 319.43 14.6026C318.972 14.2472 318.722 13.7455 318.68 13.0765H315.511C315.532 14.1323 315.782 15.0103 316.251 15.7315C316.72 16.4528 317.387 16.9859 318.252 17.3413C319.118 17.6967 320.139 17.8848 321.317 17.8848C322.474 17.8848 323.465 17.7176 324.299 17.3726C325.133 17.0277 325.769 16.5364 326.206 15.8988C326.655 15.2612 326.874 14.4981 326.874 13.6201C326.874 12.5225 326.498 11.634 325.769 10.9337C325.039 10.2438 323.976 9.74208 322.6 9.43895L321.38 9.14627C320.702 8.99993 320.181 8.80133 319.827 8.56091C319.462 8.3205 319.284 8.01737 319.284 7.59925C319.284 7.18114 319.462 6.84665 319.806 6.58533ZM332.253 3.65845H336.621L341.364 17.6966H337.82L336.871 14.6862H331.992L331.044 17.6966H327.489L332.242 3.65845H332.253ZM334.494 7.12878H334.379L332.795 12.167H336.079L334.494 7.12878ZM351.288 4.2229C350.527 3.8466 349.62 3.65845 348.578 3.65845H342.865V17.6966H346.149V12.8674H347.984L350.558 17.6966H354.176L351.246 12.3343C352.028 11.9789 352.633 11.4667 353.05 10.7768C353.467 10.0869 353.665 9.27161 353.665 8.30995C353.665 7.36919 353.456 6.54342 353.05 5.84308C352.643 5.14275 352.049 4.5992 351.288 4.2229ZM349.651 6.82565C350.058 7.16014 350.256 7.65142 350.256 8.30995C350.256 9.6061 349.464 10.2437 347.879 10.2333H346.138V6.33437H347.879C348.661 6.33437 349.245 6.49116 349.651 6.82565ZM360.889 9.55383H361.004L364.017 3.65845H367.697L362.588 12.951V17.707H359.305V12.951L354.176 3.65845H357.866L360.879 9.55383H360.889ZM196.972 30.1145V27.4281H187.476V41.4662H190.759V35.7799H196.347V33.0831H190.759V30.1145H196.972ZM204.405 27.4177C205.448 27.4177 206.354 27.6058 207.115 27.9821C207.876 28.3584 208.471 28.902 208.877 29.6023C209.284 30.3026 209.492 31.1284 209.492 32.0692C209.492 33.0308 209.294 33.8461 208.877 34.536C208.46 35.2259 207.856 35.7381 207.074 36.0935L210.003 41.4558H206.386L203.811 36.6266H201.976V41.4558H198.692V27.4177H204.405ZM206.083 32.0692C206.083 31.4106 205.885 30.9194 205.479 30.5849C205.072 30.2504 204.488 30.0936 203.707 30.0936H201.966V33.9925H203.707C205.291 34.0029 206.083 33.3653 206.083 32.0692ZM221.032 27.4281V27.4177L221.043 27.4281H221.032ZM221.032 27.4281V30.1145H214.632V33.0831H220.532V35.7799H214.632V38.7694H221.053V41.4662H211.348V27.4281H221.032ZM228.517 29.9578C227.86 29.9578 227.36 30.0833 227.006 30.3446C226.662 30.6059 226.484 30.9404 226.484 31.3585C226.484 31.7766 226.662 32.0798 227.016 32.3202C227.371 32.5606 227.892 32.7487 228.569 32.9055L229.789 33.1982C231.165 33.5013 232.228 34.0031 232.958 34.693C233.688 35.3828 234.063 36.2818 234.063 37.3793C234.063 38.2574 233.844 39.0204 233.396 39.6581C232.948 40.2957 232.322 40.787 231.488 41.1319C230.654 41.4768 229.664 41.6441 228.507 41.6441C227.329 41.6441 226.307 41.4559 225.442 41.1005C224.577 40.7451 223.91 40.2121 223.44 39.4908C222.971 38.7696 222.721 37.8915 222.7 36.8358H225.869C225.911 37.5048 226.161 38.0065 226.62 38.3619C227.079 38.7173 227.694 38.895 228.465 38.895C229.153 38.895 229.695 38.7591 230.091 38.4873C230.487 38.2156 230.696 37.8497 230.706 37.3898C230.706 36.9926 230.519 36.6685 230.154 36.4281C229.789 36.1877 229.216 35.9787 228.423 35.801L226.954 35.456C224.358 34.8498 223.065 33.5536 223.065 31.578C223.065 30.7209 223.294 29.9683 223.764 29.3098C224.233 28.6512 224.879 28.139 225.703 27.7732C226.526 27.4074 227.475 27.2297 228.517 27.2297C229.56 27.2297 230.519 27.4074 231.321 27.7732C232.124 28.139 232.75 28.6512 233.187 29.3098C233.625 29.9683 233.855 30.7313 233.855 31.5885H230.686C230.644 31.0658 230.435 30.6686 230.06 30.3864C229.687 30.1057 229.169 29.9594 228.517 29.9578ZM239.067 33.0831V27.4177H235.783V41.4558H239.067V35.7695H244.696V41.4558H247.98V27.4177H244.696V33.0831H239.067ZM262.387 36.2607H262.237L258.624 27.4281H254.537V41.4662H257.748V32.6963H257.863L261.271 41.3826H263.356L266.765 32.7277H266.88V41.4558H270.091V27.4177H266.004L262.387 36.2607ZM280.682 27.4177H276.314H276.304L271.55 41.4558H275.105L276.054 38.4454H280.932L281.881 41.4558H285.425L280.682 27.4177ZM278.441 30.888H278.556L280.14 35.9263H276.856L278.441 30.888ZM292.639 27.4177C293.682 27.4177 294.589 27.6058 295.35 27.9821C296.111 28.3584 296.705 28.902 297.111 29.6023C297.518 30.3026 297.726 31.1284 297.726 32.0692C297.726 33.0308 297.528 33.8461 297.111 34.536C296.694 35.2259 296.09 35.7381 295.308 36.0935L298.237 41.4558H294.62L292.045 36.6266H290.21V41.4558H286.926V27.4177H292.639ZM294.318 32.0692C294.318 31.4106 294.119 30.9194 293.713 30.5849C293.306 30.2504 292.723 30.0936 291.941 30.0936H290.2V33.9925H291.941C293.525 34.0029 294.318 33.3653 294.318 32.0692ZM302.876 33.4071V27.4176L302.866 27.4072H299.582V41.4453H302.866V37.6091L304.263 35.8844L307.807 41.4558H311.758L306.671 33.6789L311.685 27.4176H307.776L303.074 33.4071H302.876ZM322.683 27.4177V27.4281H312.998V41.4662H322.704V38.7694H316.282V35.7799H322.183V33.0831H316.282V30.1145H322.683V27.4281H322.693L322.683 27.4177ZM336.089 30.1145V27.4177H324.309V30.1145H328.562V41.4558H331.836V30.1145H336.089Z" fill="white"/>
<path d="M139.376 68.7795H168.367V248.955H111.887V96.3436C111.887 81.1348 124.209 68.7795 139.376 68.7795Z" fill="#77D326"/>
<path d="M168.367 119.842H111.887V219.593H168.367V119.842Z" fill="url(#paint0_linear_435_1587)"/>
<path d="M205.543 142.869H42.2305V198.269H205.543V142.869Z" fill="#77D326"/>
<path opacity="0.5" d="M153.326 142.953H57.7109V198.269H153.326V142.953Z" fill="url(#paint1_linear_435_1587)"/>
<path d="M143.797 0.0522768L100.618 1.27695e-05C89.0155 -0.01044 78.3824 6.39714 72.9303 16.6409L72.7843 16.9231C72.7739 16.944 72.7635 16.9649 72.7531 16.9858L59.2428 43.1388L3.81499 155.057C-3.68033 169.566 1.96983 187.429 16.4496 194.945C20.5778 197.088 24.977 198.154 29.3345 198.259L43.095 198.269H74.5774C45.5552 191.088 68.3226 150.949 68.3226 150.949L143.797 0.0522768Z" fill="#77D326"/>
<path d="M277.534 62.3406C227.381 62.3406 186.568 104.434 186.568 156.165C186.568 207.896 227.37 250 277.534 250C327.697 250 368.499 207.906 368.499 156.165C368.499 104.424 327.697 62.3406 277.534 62.3406ZM277.534 203.328C252.285 203.328 231.822 182.213 231.822 156.176C231.822 130.138 252.285 109.023 277.534 109.023C302.782 109.023 323.246 130.138 323.246 156.176C323.246 182.213 302.782 203.328 277.534 203.328Z" fill="#77D326"/>
<path d="M311.759 140.172C311.759 140.172 295.35 139.388 285.707 149.339C280.672 154.534 278.473 161.621 277.524 167.214C276.575 161.621 274.376 154.534 269.341 149.339C259.698 139.388 243.29 140.172 243.29 140.172C243.29 140.172 242.529 157.095 252.171 167.046C260.636 175.775 274.303 176.245 277.524 176.224C280.745 176.245 294.412 175.775 302.877 167.046C312.52 157.095 311.759 140.172 311.759 140.172Z" fill="#77D326"/>
<path d="M237.724 132.374C245.594 118.42 259.303 109.922 273.793 108.364C280.152 107.674 286.105 104.549 289.67 99.2286C292.745 94.6398 294.309 88.9848 293.694 83.1103C292.339 70.0548 280.809 60.8458 267.945 62.5392C243.728 65.7273 221.889 78.3857 206.44 98.1833C190.99 117.981 184.923 142.409 187.477 166.973" fill="url(#paint2_linear_435_1587)"/>
<path d="M350.841 100.755C343.252 90.0614 328.689 87.7305 318.326 95.5596C313.594 99.1345 310.55 104.215 309.372 109.692C308.048 115.869 309.757 122.267 313.552 127.305C319.546 135.28 323.122 145.284 323.122 156.165C323.122 182.203 302.658 203.318 277.41 203.318C252.161 203.318 231.698 182.203 231.698 156.165C231.698 140.13 239.454 125.977 251.306 117.458C256.508 113.716 260.147 108.061 260.637 101.664C261.054 96.145 259.646 90.4586 256.227 85.6399C248.638 74.9467 234.085 72.6157 223.712 80.4448C204.208 95.1729 191.407 116.977 187.675 141.834C183.942 166.691 189.759 191.464 204.031 211.586C218.313 231.708 239.443 244.909 263.545 248.756C287.636 252.603 311.655 246.613 331.159 231.885C350.664 217.157 363.465 195.353 367.197 170.496C370.929 145.639 365.112 120.866 350.841 100.744V100.755Z" fill="#77D326"/>
</g>
<defs>
<linearGradient id="paint0_linear_435_1587" x1="140.127" y1="131.246" x2="140.127" y2="210.562" gradientUnits="userSpaceOnUse">
<stop stop-color="#56A100" stop-opacity="0"/>
<stop offset="0.49" stop-color="#568F11" stop-opacity="0.5"/>
<stop offset="0.76" stop-color="#568619" stop-opacity="0.21"/>
<stop offset="0.97" stop-color="#568020" stop-opacity="0"/>
</linearGradient>
<linearGradient id="paint1_linear_435_1587" x1="57.7109" y1="170.611" x2="207.68" y2="170.611" gradientUnits="userSpaceOnUse">
<stop stop-color="#56A100"/>
<stop offset="0.11" stop-color="#56920E" stop-opacity="0.56"/>
<stop offset="0.23" stop-color="#56851A" stop-opacity="0.16"/>
<stop offset="0.28" stop-color="#568020" stop-opacity="0"/>
</linearGradient>
<linearGradient id="paint2_linear_435_1587" x1="275.544" y1="80.8943" x2="216.298" y2="116.908" gradientUnits="userSpaceOnUse">
<stop offset="0.07" stop-color="#568020" stop-opacity="0"/>
<stop offset="0.24" stop-color="#56851A" stop-opacity="0.16"/>
<stop offset="0.62" stop-color="#56920E" stop-opacity="0.56"/>
<stop offset="1" stop-color="#56A100"/>
</linearGradient>
<clipPath id="clip0_435_1587">
<rect width="368" height="250" fill="white" transform="translate(0.5)"/>
</clipPath>
</defs>
</svg>
