<svg width="280" height="280" viewBox="0 0 280 280" fill="none" xmlns="http://www.w3.org/2000/svg">
<path d="M261.633 206.739C273.325 186.549 280 163.17 280 138.238C280 61.8917 217.32 0 140 0C62.6804 0 0 61.8917 0 138.238C0 170.486 11.1842 200.149 29.9186 223.658C32.8936 238.29 42.1007 250.3 56.9 258.666C59.649 260.218 69.5811 265.127 85.3406 265.536C94.3689 269.319 103.887 272.182 113.762 274.032C115.269 275.408 116.483 276.337 117.246 276.784C120.898 278.912 124.551 279.991 128.091 279.991C131.951 279.991 135.481 278.736 138.268 276.449C138.842 276.449 139.416 276.468 140 276.468C176.217 276.468 209.214 262.886 234.068 240.613C234.303 240.623 234.538 240.651 234.783 240.651C236.233 240.651 239.076 240.483 241.74 239.405C242.107 239.544 242.456 239.637 242.766 239.702C243.284 239.944 243.99 240.195 244.856 240.316C245.186 240.363 245.544 240.381 245.939 240.381C247.248 240.381 248.857 240.121 250.175 239.479C251.117 239.024 252.218 238.271 253.169 237.025C253.216 237.081 253.263 237.137 253.31 237.193C254.901 239.061 257.283 240.093 259.995 240.093C261.604 240.093 263.073 239.879 264.466 239.452C266.425 238.847 267.931 237.304 268.477 235.352C268.825 234.097 268.74 232.796 268.27 231.624C268.289 231.42 268.317 231.132 268.364 230.76C268.524 229.421 268.882 227.748 269.155 226.493C269.682 224.197 270.247 220.86 270.247 218.369C270.247 212.15 266.933 207.818 261.623 206.739H261.633Z" fill="#80C342"/>
<path d="M237.401 217.169L241.759 217.207C242.192 217.207 243.219 216.853 243.595 215.719L244.113 213.6C244.207 212.875 244.113 212.373 243.793 212.01C243.36 211.508 242.607 211.397 241.609 211.378L238.568 211.304C238.775 210.04 238.982 208.766 239.208 207.502L239.227 207.4C239.425 206.265 239.698 204.704 238.003 204.23C237.626 204.127 237.24 204.174 236.902 204.23L236.666 204.258C235.442 204.388 234.52 205.373 234.002 207.093C233.588 208.459 233.334 209.398 232.844 211.22L229.351 211.294C229.041 211.294 228.777 211.397 228.579 211.601C228.127 212.066 228.175 212.921 228.212 213.535C228.212 213.693 228.231 213.823 228.222 213.934C228.193 214.818 228.457 215.571 228.994 216.11C229.568 216.695 230.396 216.993 231.46 217.002L231.573 217.039C231.441 217.541 231.262 218.164 231.084 218.778C230.867 219.503 230.669 220.191 230.566 220.646C230.415 221.315 230.236 221.994 230.057 222.663C229.144 226.131 228.193 229.71 230.886 233.13C232.006 234.553 234.002 235.157 235.979 235.157C236.836 235.157 237.692 235.045 238.464 234.832C239.754 234.478 241.788 233.112 242.079 231.569C242.183 231.02 242.098 230.221 241.138 229.514C240.63 229.142 240.15 229.217 239.679 229.291C239.255 229.356 238.822 229.421 238.238 229.198C237.043 228.743 236.629 227.376 236.403 226.242C236.073 224.569 236.638 221.436 237.146 218.666C237.24 218.155 237.325 217.662 237.41 217.188L237.401 217.169Z" fill="#231F20"/>
<path d="M262.612 214.845C261.689 213.618 260.296 212.903 258.45 212.717C255.438 212.41 253.225 212.893 251.851 214.167C252.096 212.968 252.501 211.09 253.047 208.85C253.273 207.929 253.48 207.121 253.668 206.414C254.327 203.876 254.656 202.612 254.252 201.729C253.837 200.827 253.414 200.716 252.755 200.595L252.679 200.939L252.745 200.595C252.115 200.483 250.985 200.827 250.853 200.865C249.789 201.199 249.017 202.064 248.339 203.69C247.869 204.815 247.426 205.875 245.685 214.855C243.981 223.63 243.425 232.415 243.416 232.498C243.34 233.725 243.839 234.385 244.282 234.729C245.073 235.352 246.325 235.473 247.728 235.064C249.366 234.59 249.629 232.731 249.893 230.937L249.949 230.528C250.156 229.133 250.797 224.876 251.644 222.951C252.265 220.999 253.564 219.447 255.127 218.815C256.106 218.415 256.869 218.434 257.396 218.861C258.394 219.679 258.469 221.845 258.206 223.128C257.754 225.331 257.481 226.995 257.132 229.282C256.869 230.89 257.019 233.744 258.497 234.99C258.978 235.389 259.533 235.594 260.183 235.594C260.55 235.594 260.945 235.529 261.369 235.389C263.421 234.739 263.092 233.409 262.8 232.238C262.734 231.987 262.677 231.736 262.63 231.466C262.329 229.765 262.706 227.99 263.073 226.27C263.148 225.935 263.214 225.601 263.28 225.275C264.024 221.548 264.523 217.402 262.612 214.845Z" fill="#231F20"/>
<path d="M161.729 73.558C160.599 73.558 159.733 73.716 158.923 74.0228C155.816 75.2498 154.272 79.0053 154.404 81.9335C154.527 84.9082 156.457 86.7116 159.563 86.7581C161.484 86.786 163.225 86.0702 164.487 84.7874C166.04 83.1978 166.944 80.753 166.841 78.4011C166.709 75.3707 164.788 73.558 161.738 73.558H161.729ZM157.426 82.1752C157.238 79.9349 158.405 75.789 161.409 75.5287C161.465 75.5287 161.531 75.5287 161.587 75.5287C163.348 75.5845 163.743 77.1741 163.828 78.1222C164.016 80.3161 162.821 84.5457 159.865 84.806C159.808 84.806 159.752 84.806 159.705 84.8152C157.85 84.7502 157.492 82.9654 157.426 82.1845V82.1752Z" fill="white"/>
<path d="M193.229 74.1715C192.664 73.8276 191.911 73.6138 191.111 73.558C190.941 73.5487 190.781 73.5487 190.612 73.558C189.708 73.5394 188.748 73.716 187.797 74.0972C185.001 75.2034 183.09 77.9828 182.92 81.1806C182.836 82.7888 183.278 84.1924 184.21 85.2336C185.057 86.1725 186.281 86.6187 187.562 86.7209C187.562 86.7209 187.806 86.7488 188.192 86.7395C189.021 86.7395 190.913 86.6465 192.25 85.5961C192.947 85.057 193.154 83.8299 192.598 83.1327C192.598 83.1327 190.847 84.5364 188.87 84.62C188.635 84.62 188.39 84.6015 188.145 84.555C186.037 84.1831 185.867 82.1938 185.867 81.6454C185.999 81.6454 186.131 81.6454 186.272 81.6454C189.106 81.6454 191.638 80.9017 193.06 79.6468C193.963 78.8473 194.509 78.1037 194.604 76.7186C194.717 74.971 193.257 74.1715 193.248 74.1715H193.229ZM186.055 79.8699C186.498 77.9642 187.731 76.7465 188.202 76.4211C188.927 75.9191 190.565 75.1569 191.563 75.9099C191.807 76.0958 191.958 76.4955 191.93 76.8673C191.873 77.6017 191.243 78.3454 190.216 78.9217C188.776 79.7211 187.289 79.8699 186.413 79.8792C186.262 79.8792 186.14 79.8792 186.046 79.8699H186.055Z" fill="white"/>
<path d="M90.7535 66.1492C90.5652 66.1492 90.3864 66.1492 90.2169 66.1492C87.5809 66.1492 85.9616 66.4932 85.9616 66.4932L82.4219 86.3305H84.1823C85.0296 86.3305 85.6133 85.9401 85.7828 84.9454C85.924 84.1832 86.9407 78.429 87.0066 78.0572C87.7221 78.1037 88.3811 78.1223 89.1437 78.1223C93.9167 78.113 96.7787 75.1662 97.3341 72.238C98.1249 68.0828 94.6887 66.1864 90.7535 66.1492ZM87.4114 75.7983L88.7295 68.3895C88.7295 68.3895 89.2566 68.2501 90.2263 68.2408C90.3769 68.2408 90.5464 68.2408 90.7159 68.2594C92.6364 68.3616 94.7075 69.2262 94.0862 72.1543C93.8226 73.3814 92.9188 74.5806 91.8644 75.1848C90.3205 76.0679 87.9857 75.882 87.4114 75.8076V75.7983Z" fill="white"/>
<path d="M135.16 73.7067C132.722 73.5208 131.329 75.0546 130.425 76.4769C130.331 75.5845 130.039 74.8873 129.549 74.4132C129.069 73.9391 128.401 73.716 127.629 73.6974C125.511 73.6509 124.155 74.9988 123.11 76.8301C123.119 76.7558 123.129 76.6814 123.138 76.6163C123.317 75.3149 123.251 74.8315 122.856 74.3202C122.856 74.3202 122.498 73.809 121.472 73.8462C121.105 73.8369 120.634 73.8926 120.041 74.0971C120.38 74.4783 120.38 75.1848 120.06 77.3693C120.041 77.5087 118.582 85.7355 118.582 85.7355C118.582 85.7355 118.487 86.2933 119.081 86.2933H121.359C121.359 86.2933 121.66 84.5643 121.717 84.2761C121.971 83.1234 122.168 81.9335 122.893 80.2603C124.381 76.8208 126.697 75.4079 127.403 76.198C127.648 76.4676 127.666 77.1276 127.535 78.0572L126.17 85.7355C126.17 85.7355 126.075 86.2933 126.669 86.2933H128.947L129.239 84.62C129.719 81.7476 130.415 80.1209 130.415 80.1209C131.724 77.016 133.494 75.7146 134.247 75.9656C134.426 76.0307 134.755 76.198 134.887 76.7836C134.963 77.1462 134.972 77.7318 134.859 78.3918C134.737 79.2935 134.153 81.8127 133.889 83.6905C133.71 84.9826 133.776 85.4753 134.172 85.9865C134.172 85.9865 134.529 86.4978 135.556 86.4513C135.923 86.4606 136.393 86.4048 136.987 86.2003C136.648 85.8285 136.61 85.0291 136.958 82.9096C137.175 81.6268 137.467 80.2417 137.467 80.2417C137.89 78.2059 138.041 76.4583 137.589 75.3893C137.043 74.0786 135.753 73.7439 135.17 73.6974L135.16 73.7067Z" fill="white"/>
<path d="M178.053 73.7067C175.643 73.5208 174.108 75.0175 173.045 76.858C173.054 76.7744 173.073 76.6907 173.082 76.6163C173.261 75.3149 173.167 74.7293 172.8 74.3203C172.094 73.5394 170.578 73.8927 169.985 74.0972C170.324 74.4783 170.324 75.1848 170.013 77.3693C169.966 77.6668 169.919 77.9828 169.863 78.271L168.545 85.7356C168.545 85.7356 168.45 86.2933 169.043 86.2933H171.312C171.312 86.2933 171.614 84.5643 171.67 84.2761C171.924 83.1234 172.216 81.9057 172.922 80.2231C174.391 76.7372 176.556 75.6775 177.215 75.9749C177.488 76.0958 177.686 76.3653 177.771 76.7744C177.846 77.1369 177.855 77.7225 177.742 78.3825C177.62 79.2842 177.036 81.8034 176.773 83.6812C176.584 84.9733 176.66 85.466 177.055 85.9772C177.055 85.9772 177.413 86.4885 178.439 86.442C178.806 86.4513 179.277 86.3956 179.87 86.1911C179.531 85.8192 179.493 85.0198 179.842 82.9003C180.049 81.6175 180.35 80.2324 180.35 80.2324C180.774 78.1966 180.924 76.449 180.472 75.38C179.917 74.0693 178.58 73.7346 178.053 73.6974V73.7067Z" fill="white"/>
<path d="M108.376 74.1901C107.529 74.2459 106.475 74.3296 106.475 74.3296L106.22 75.8076C106.136 76.2631 106.042 76.7558 105.938 77.2485C105.731 78.0665 105.448 78.9682 104.978 80.0651C103.49 83.5046 101.504 84.5085 100.76 84.3412C100.515 84.2854 100.252 84.0809 100.12 83.5139C100.045 83.1513 100.035 82.5657 100.148 81.9057C100.271 81.004 100.854 78.4941 101.118 76.6071C101.297 75.3056 101.231 74.8223 100.835 74.311C100.835 74.311 100.478 73.7997 99.4515 73.8369C99.0844 73.8276 98.6137 73.8834 98.0206 74.0879C98.3595 74.469 98.3971 75.2592 98.0488 77.3786C97.8417 78.6614 97.7381 78.9403 97.531 80.0465C97.3051 81.2922 97.0697 82.6401 97.1639 83.8671C97.2768 85.3916 98.3501 86.4328 99.8375 86.5908C102.172 86.8232 103.782 85.2708 104.846 83.4953C104.846 83.5603 104.827 83.6254 104.818 83.6905C104.639 84.9919 104.705 85.4753 105.11 85.9866C105.11 85.9866 105.467 86.4978 106.493 86.4514C106.861 86.4699 107.331 86.4049 107.924 86.2004C107.585 85.8285 107.585 85.1128 107.906 82.9282C107.953 82.6308 108 82.3147 108.056 82.0265L108.885 77.2671L109.261 75.1662C109.365 74.6456 109.177 74.153 108.405 74.1994L108.376 74.1901Z" fill="white"/>
<path d="M151.862 74.1901C151.015 74.2459 149.961 74.3296 149.961 74.3296L149.706 75.8076C149.622 76.2631 149.518 76.7558 149.424 77.2485C149.217 78.0665 148.934 78.9682 148.464 80.0651C146.976 83.5046 144.99 84.5085 144.246 84.3412C144.001 84.2854 143.738 84.0809 143.606 83.5139C143.531 83.1513 143.521 82.5657 143.634 81.9057C143.757 81.004 144.34 78.4941 144.604 76.6071C144.783 75.3056 144.717 74.8223 144.321 74.311C144.321 74.311 143.964 73.7997 142.937 73.8369C142.57 73.8276 142.1 73.8834 141.507 74.0879C141.845 74.469 141.883 75.2592 141.535 77.3786C141.328 78.6614 141.224 78.9403 141.026 80.0465C140.8 81.2922 140.556 82.6401 140.659 83.8671C140.772 85.3916 141.845 86.4328 143.323 86.5908C145.658 86.8232 147.268 85.2708 148.332 83.4953C148.322 83.5603 148.313 83.6254 148.304 83.6905C148.125 84.9919 148.191 85.4753 148.595 85.9866C148.595 85.9866 148.953 86.4978 149.979 86.4514C150.347 86.4699 150.817 86.4049 151.41 86.2004C151.071 85.8285 151.071 85.1128 151.392 82.9282C151.429 82.6308 151.486 82.3147 151.542 82.0265L152.371 77.2671L152.747 75.1662C152.841 74.6456 152.662 74.153 151.89 74.1994L151.862 74.1901Z" fill="white"/>
<path d="M117.32 65.9726C117.254 65.9726 117.169 65.9726 117.075 65.9912L114.778 66.456L111.662 83.9043C111.502 84.8989 111.568 85.2986 111.766 85.6891C111.954 86.0237 112.255 86.2189 112.585 86.3305C112.933 86.442 113.3 86.4699 113.62 86.4606C114.223 86.4792 114.712 86.3491 114.712 86.3491C114.712 86.3491 114.402 85.3916 114.656 83.8857L117.687 66.9208C117.772 66.4374 117.828 65.9726 117.329 65.9726H117.32Z" fill="white"/>
<path d="M139.999 60.3486C114.402 60.3486 91.5345 54.1762 76.0668 44.6944C75.9538 44.6293 75.8408 44.555 75.7373 44.462C75.5961 44.3505 75.5584 44.146 75.6337 43.9786C75.6996 43.802 75.8879 43.6719 76.0856 43.7091C76.2174 43.7369 76.3774 43.7834 76.4904 43.8299C93.6244 49.5654 115.833 52.8097 139.999 52.8097C164.166 52.8097 186.365 49.5654 203.508 43.8299C203.621 43.7927 203.772 43.7369 203.922 43.7091C204.111 43.6719 204.289 43.7927 204.374 43.9786C204.431 44.146 204.412 44.3505 204.252 44.462C204.158 44.5457 204.045 44.62 203.932 44.6944C188.473 54.1855 165.597 60.3486 140.009 60.3486H139.999Z" fill="white"/>
<path d="M226.291 194.59C224.916 170.504 211.529 155.612 197.088 152.415C192.371 149.282 185.81 147.832 179.125 148.138C152.841 149.366 133.485 177.234 135.179 206.944C135.405 210.895 136.008 214.585 136.93 218.015C146.985 214.855 157.717 206.591 160.993 213.6C164.223 220.507 154.215 230.732 146.787 236.086C155.222 245.01 167.565 249.491 181.639 248.84C210.729 247.483 228.023 225.173 226.272 194.59H226.291ZM183.823 231.02C171.97 231.597 161.558 219.001 160.664 202.975C159.6 183.835 169.297 167.911 179.605 163.04C187.758 165.921 201.145 173.535 202.473 197.341C203.48 215.394 196.542 230.397 183.833 231.02H183.823Z" fill="#231F20"/>
<path d="M157.387 214.037C156.352 213.414 155.053 213.405 153.923 213.851C146.495 216.816 135.829 221.873 124.531 225.164C124.315 215.478 125.172 204.759 127.384 193.688C128.702 187.135 131.037 180.376 131.413 176.37C132.43 165.54 113.846 153.632 107.717 165.773C95.3377 190.304 95.413 211.48 99.9412 227.999C96.2791 227.534 92.7581 226.549 89.4914 224.866C74.8616 217.327 77.7612 195.426 77.7894 195.073C79.9547 168.924 106.239 134.176 107.087 132.754C112.594 123.532 112.632 113.195 87.9474 131.62C70.4651 144.662 8.3119 217.476 62.896 248.338C68.9305 251.75 85.4621 256.956 107.51 250.876C108.263 250.672 109.007 250.449 109.751 250.216C116.068 260.302 122.554 266.065 123.383 266.549C131.206 271.104 134.256 264.931 130.641 257.123C128.918 253.386 127.497 248.831 126.452 243.635C127.487 243.151 128.514 242.659 129.54 242.157C133.767 240.074 137.909 237.797 141.873 235.25C145.535 232.898 149.074 230.304 152.181 227.283C154.695 224.838 157.048 222.022 158.3 218.731C158.432 218.378 158.573 218.015 158.658 217.643C159.035 216.165 158.752 214.883 157.368 214.055L157.387 214.037Z" fill="#231F20"/>
<path d="M11.2317 137.234C13.9336 134.316 18.622 133.2 22.6136 134.948C30.5122 138.406 28.4128 145.303 29.1377 145.117C29.7026 144.969 33.6472 137.588 42.732 139.196C51.1107 140.683 58.548 154.488 46.9966 164.611C31.6419 178.062 32.3951 185.034 33.0541 191.067C33.167 192.099 31.9526 192.48 31.1995 191.764C25.7768 186.642 18.0948 181.176 11.8154 167.511C8.36038 159.981 5.50784 148.194 9.26415 140.135C9.74428 139.103 10.4221 138.108 11.2317 137.234Z" fill="#F9ED32"/>
<path d="M235.705 190.881C235.705 191.513 235.743 192.145 235.799 192.759C236.43 192.814 237.061 192.851 237.701 192.851C249.375 192.851 258.836 183.509 258.836 171.982C258.836 171.35 258.798 170.718 258.742 170.105C258.111 170.049 257.48 170.012 256.84 170.012C245.166 170.012 235.705 179.354 235.705 190.881Z" fill="white"/>
<path d="M127.036 110.304C131.226 109.682 134.794 108.873 138.936 107.785C139.953 107.451 140.819 106.595 140.715 105.74C140.527 104.411 139.605 104.216 138.305 104.504C135.17 105.313 130.115 106.456 126.255 107.125C124.231 107.506 123.657 108.027 123.704 109.124V109.17C123.892 110.407 125.201 110.5 127.027 110.314L127.036 110.304Z" fill="#231F20"/>
<path d="M146.76 124.564C147.438 124.471 148.153 123.616 148.153 122.761C148.012 121.664 147.193 121.283 146.468 121.283C141.554 121.664 129.645 124.09 124.156 125.373C123.092 125.615 122.273 126.135 122.273 127.279C122.273 127.994 122.904 129.091 124.392 128.85C127.866 128.041 130.511 127.418 134.267 126.665C134.126 127.994 133.975 128.998 133.787 130.235C132.102 130.569 130.699 130.858 129.165 131.239C128.204 131.573 128.007 132.856 128.393 133.572C128.732 134.288 129.645 134.52 130.276 134.427C132.158 133.953 136.207 133.098 138.08 132.81C136.056 135.422 134.371 137.857 133.693 139.428C132.827 141.808 135.086 142.236 136.781 141.855C137.939 141.566 139.191 141.287 139.765 141.287L135.237 146.949C134.851 147.423 134.71 147.943 134.71 148.427C134.71 149.524 135.482 150.379 137.167 150.379C139.483 150.332 143.531 149.431 146.76 148.38C147.72 147.953 148.351 147.097 148.153 146C147.909 145.099 147.09 144.857 146.176 145.145C143.719 145.908 141.356 146.521 139.285 146.902C142.326 143.76 143.427 142.143 143.672 140.572C143.86 138.759 142.467 138.285 140.537 138.285C139.765 138.285 139.04 138.378 138.221 138.471C139.332 136.76 139.953 135.952 141.742 133.618C142.269 132.856 142.561 132.187 142.561 131.48C142.514 129.194 140.01 129.101 137.553 129.575L138.184 125.912C140.688 125.438 143.296 125.103 146.76 124.583V124.564Z" fill="#231F20"/>
<path d="M138.419 111.243C138.843 110.481 138.758 109.486 137.986 108.957C137.261 108.482 136.301 108.957 135.915 109.338C134.992 111.466 133.185 115.501 132.724 117.797C132.62 117.815 130.841 118.113 130.728 118.132C130.229 115.761 130.728 113.223 131.406 111.271C131.406 110.546 130.737 110.221 130.022 110.109C129.306 109.998 128.6 110.146 128.459 110.435C127.743 111.931 126.821 114.804 127.489 117.974C127.555 118.271 127.621 118.531 127.696 118.792C126.764 119.024 126.19 119.47 126.077 120.27C126.03 121.515 126.557 122.194 127.527 122.157C128.751 122.11 137.553 120.381 141.931 119.284C142.411 119.098 143.23 118.094 142.656 116.997C142.176 116.189 141.14 116.235 140.387 116.375C139.069 116.626 138.796 116.681 136.103 117.202C136.922 114.497 137.271 113.288 138.419 111.225V111.243Z" fill="#231F20"/>
<path d="M170.117 124.025C164.139 125.884 157.153 127.167 150.987 127.688C149.688 127.874 148.916 128.357 148.774 129.352C148.727 130.634 149.255 131.304 150.224 131.304C153.406 130.969 156.438 130.588 159.573 130.067C159.62 131.592 159.62 132.587 159.62 134.158C159.62 137.207 159.478 140.246 159.14 143.295C159.092 144.439 160.006 144.913 160.975 144.913C161.747 144.913 162.519 144.439 162.613 143.909C162.999 140.107 163.141 136.435 163.141 132.68C163.141 131.583 163.141 130.495 163.094 129.352C165.748 128.785 168.394 128.208 170.804 127.4C171.576 127.111 172.301 126.21 172.301 125.401C172.301 124.165 171.143 123.69 170.135 124.025H170.117Z" fill="#231F20"/>
<path d="M155.374 123.086C155.374 123.086 155.449 123.021 155.487 122.993C155.75 123.393 156.193 123.672 156.795 123.579C157.567 123.458 160.552 122.863 161.888 122.575C163.508 122.231 165.343 121.813 165.343 121.813C166.21 121.627 166.944 121.236 166.614 119.749C166.426 118.894 165.814 118.559 164.477 118.857L164.515 118.708L165.852 109.923C166.379 108.399 165.466 106.595 163.583 107.023L155.345 109.208C154.865 109.347 154.621 109.682 154.432 110.016V109.44C154.244 108.269 153.613 107.729 152.7 107.729C151.74 107.729 151.024 108.733 151.062 109.44C151.241 112.545 152.747 118.977 153.199 121.432C153.34 122.101 153.839 123.607 155.383 123.086H155.374ZM156.061 112.35L162.208 110.658L161.568 119.433C161.549 119.489 157.878 120.297 157.473 120.363C156.927 120.455 156.494 120.586 156.136 120.762C155.477 117.611 155.054 114.711 154.461 111.727C154.752 112.396 155.28 112.535 156.052 112.35H156.061Z" fill="#231F20"/>
<path d="M180.963 122.789C183.326 121.645 186.894 118.225 186.46 114.227C186.074 112.275 184.436 110.797 182.798 110.946C182.751 110.044 182.365 109.514 181.782 109.468C181.01 109.468 179.899 110.844 179.466 111.559C178.449 113.037 177.009 116.124 176.914 119.173C176.82 121.841 178.308 124.22 180.963 122.789ZM181.923 113.939C182.111 113.697 183.034 114.181 183.034 114.934C183.326 116.598 181.396 119.07 180.096 119.6C180.341 117.695 180.774 115.65 181.932 113.939H181.923Z" fill="#231F20"/>
<path d="M200.402 138.582C196.598 139.865 193.369 140.581 191.731 140.581H190.818C190.865 139.438 191.731 136.723 192.268 135.636C193.134 133.972 191.308 132.02 189.952 133.544C189.472 134.26 187.495 138.35 187.542 141.064C187.542 143.305 189.472 143.825 191.204 143.825C194.047 143.825 197.954 142.877 200.599 141.827C201.277 141.492 202.765 140.451 202.624 139.447C202.482 138.452 201.371 138.257 200.411 138.592L200.402 138.582Z" fill="#231F20"/>
<path d="M219.739 131.229C219.607 129.733 218.487 129.426 217.555 129.64L209.675 131.917V127.641C209.817 126.879 209.44 125.661 208.461 125.624C207.614 125.531 206.813 126.061 206.719 126.944L206.512 133.33C206.38 135.003 207.341 135.496 208.414 135.273L217.423 132.893C218.854 132.456 219.655 132.103 219.739 131.22V131.229Z" fill="#231F20"/>
<path d="M209.205 131.852L205.863 132.8C204.432 133.237 203.632 133.591 203.547 134.474C203.679 135.97 204.799 136.277 205.731 136.063L209.694 134.957" fill="#231F20"/>
<path d="M221.801 136.491C222.29 136.491 223.185 136.091 223.269 135.078C223.533 132.698 223.759 130.188 223.853 127.809C225.905 127.232 227.826 126.749 230.057 126.312C231.036 125.959 231.394 125.252 231.347 124.722C231.3 124.192 230.678 123.309 229.737 123.356C228.447 123.449 226.084 123.969 223.938 124.546C223.985 121.943 223.938 119.479 223.844 117.016C223.797 116.226 223.081 114.683 221.744 114.859C220.718 115.036 220.633 115.826 220.671 117.546C220.756 119.879 220.85 122.343 220.85 124.899C220.85 128.022 220.718 131.239 220.407 133.972C220.36 134.855 220.407 136.351 221.791 136.482L221.801 136.491Z" fill="#231F20"/>
<path d="M211.888 120.009V121.069C211.888 123.096 211.709 125.299 211.445 127.325C211.36 128.245 212.245 128.645 212.735 128.692C213.45 128.738 214.166 128.561 214.429 127.595C214.966 124.732 215.098 121.562 215.051 118.429C215.051 116.802 214.025 115.919 212.735 116.319L204.799 119.758C204.083 120.065 203.283 121.032 203.415 121.831C203.82 122.928 204.846 123.105 205.467 122.928C206.983 122.315 208.771 121.385 211.888 120.019V120.009Z" fill="#231F20"/>
<path d="M224.212 144.309C224.212 143.621 223.412 143.574 223.016 143.695C221.896 144.067 221.124 144.309 220.296 144.532C220.371 143.518 220.399 142.412 220.324 141.334C220.296 140.674 219.976 140.181 219.251 140.349C218.676 140.497 218.526 141.083 218.554 141.65C218.601 142.933 218.601 143.649 218.507 144.95C217.961 145.071 217.358 145.173 216.492 145.34C215.843 145.461 215.541 145.982 215.617 146.4C215.645 146.772 215.918 147.209 216.539 147.162C219.533 146.595 221.501 146.075 223.544 145.415C223.967 145.238 224.212 144.653 224.212 144.309Z" fill="#231F20"/>
<path d="M232.533 148.715C231.884 148.891 229.869 149.282 229.238 149.328C228.937 149.356 228.918 148.882 228.89 148.492C228.786 147.088 228.843 145.043 228.862 143.862C228.862 143.444 228.41 143.249 227.986 143.249C227.562 143.249 227.11 143.472 227.063 143.788C227.035 144.476 227.035 145.164 227.035 145.805C227.035 146.911 227.082 148.092 227.158 149.254C227.261 150.239 227.581 151.197 228.457 151.197C229.304 151.169 231.818 150.732 233.296 150.184C233.522 150.063 233.644 149.524 233.493 149.152C233.343 148.808 232.947 148.613 232.524 148.706L232.533 148.715Z" fill="#231F20"/>
<path d="M220.766 147.776C220.663 147.358 220.465 147.116 220.239 147.116C219.787 147.116 219.316 147.832 219.166 148.101C218.77 148.864 218.215 150.342 218.215 151.624C218.215 152.759 218.686 153.79 219.665 153.79C221.463 153.688 223.101 151.16 222.705 149.356C222.451 148.25 221.538 147.729 220.757 147.785L220.766 147.776ZM219.815 152.061C219.768 151.299 219.966 150.137 220.361 149.403C220.559 149.031 221.105 149.282 221.18 149.895C221.284 150.555 220.559 151.597 219.806 152.061H219.815Z" fill="#231F20"/>
<path d="M230.914 159.591L227.845 160.4L229.916 155.036C230.217 154.171 229.812 153.168 228.843 153.409L224.776 154.441C224.729 153.679 224.324 153.26 223.957 153.233C223.486 153.205 223.006 153.577 223.006 154.246C222.978 155.798 223.053 158.187 223.204 159.814C223.279 160.428 223.731 160.799 224.173 160.827H224.22C224.747 160.753 224.889 160.381 224.87 159.814C224.795 158.68 224.719 157.379 224.719 156.142L227.986 155.38L225.689 161.19C225.388 161.999 226.084 162.621 226.715 162.491C228.24 162.073 229.935 161.608 231.45 161.208C231.921 161.032 232.119 160.548 231.949 160.056C231.827 159.712 231.601 159.461 230.904 159.591H230.914Z" fill="#231F20"/>
<path d="M245.676 143.779C245.101 143.779 244.904 144.225 244.875 144.718C244.923 145.554 244.979 146.344 244.979 147.255C244.009 147.376 243.332 147.478 242.465 147.702C242.494 146.865 242.512 146.177 242.512 145.61C242.465 144.894 242.061 144.699 241.562 144.699C241.26 144.699 241.016 144.746 240.79 144.82L238.596 145.508C238.474 145.062 238.097 144.987 237.702 144.987C237.401 144.987 237.156 145.034 236.93 145.089L234.011 146.047C233.512 146.224 233.164 146.586 233.315 147.181C233.437 147.702 233.936 147.748 234.36 147.627L236.93 146.791C236.902 148.836 236.751 150.435 236.327 152.628C236.327 153.288 237.645 153.363 237.947 152.898C238.37 151.048 238.568 148.984 238.615 147.209L240.78 146.595C240.78 148.882 240.601 151.346 240.178 153.586C240.178 154.246 241.496 154.32 241.797 153.855C242.07 152.647 242.268 150.881 242.371 149.403C243.397 149.161 244.094 149.031 244.96 148.91C244.932 150.481 244.913 151.792 244.838 153.344C244.838 153.865 245.214 154.227 245.638 154.283C245.892 154.311 246.382 154.088 246.438 153.716C246.589 151.578 246.739 148.771 246.739 145.22C246.711 144.485 246.561 143.862 245.666 143.788L245.676 143.779Z" fill="#231F20"/>
<path d="M248.82 143.258C248.199 143.407 248.02 143.751 248.02 144.318C248.048 145.052 248.067 145.842 248.067 146.633C248.067 149.096 247.916 151.875 247.69 154.506C247.615 155.166 248.039 155.538 248.462 155.594C248.707 155.594 249.187 155.445 249.263 154.999C249.564 152.582 249.884 148.891 249.884 144.978C249.856 143.993 249.762 143.128 248.811 143.258H248.82Z" fill="#231F20"/>
<path d="M186.13 126.414C188.785 125.847 189.002 126.098 191.412 125.289C192.184 125.001 192.909 124.099 192.909 123.291C192.909 122.054 191.751 121.58 190.743 121.915C184.991 123.458 183.202 123.653 177.102 124.685C175.803 124.871 175.031 125.354 174.89 126.349C174.843 127.632 175.37 128.301 176.339 128.301C179.521 127.967 179.493 127.66 182.628 127.13C182.675 128.654 182.675 129.649 182.675 131.22C182.675 134.269 182.845 133.395 182.506 136.435C182.459 137.578 183.372 138.053 184.342 138.053C185.114 138.053 185.886 137.578 185.98 137.049C186.366 133.247 186.196 133.498 186.196 129.733C186.196 128.636 186.196 127.548 186.149 126.405L186.13 126.414Z" fill="#231F20"/>
<path d="M188.917 127.316C188.051 127.558 187.524 128.599 187.618 129.221C187.863 130.7 189.068 130.839 189.981 130.597C192.919 129.5 193.606 129.547 196.449 128.98C196.308 130.885 196.289 131.629 195.809 133.721C195.517 134.911 195.62 135.905 196.722 136.147C197.541 136.286 198.313 136.054 198.699 134.957C199.706 132.103 200.149 127.818 200.149 123.96C200.149 122.817 199.96 118.401 199.866 117.453C199.819 116.505 199.339 114.692 197.748 115.166C197.221 115.408 196.317 115.733 196.411 117.165C196.458 118.689 196.552 124.601 196.552 125.596C193.229 126.117 192.156 126.163 188.927 127.307L188.917 127.316Z" fill="#231F20"/>
</svg>
