<svg width="104" height="93" fill="none" xmlns="http://www.w3.org/2000/svg"><g clip-path="url(#clip0_849_14317)"><path d="M84.6899 39.8102L42.4399 4.24023L26.3999 13.8002L33.8799 55.7002L84.6899 39.8102Z" fill="#F9CF1E"/><path d="M33.16 13.85L48.76 1.56C48.76 1.56 33.55 -4.68 27.7 7.8C19.89 -3.9 5.85 1.17 5.85 1.17L18.33 12.09C18.33 12.09 3.51 9.75 0 19.5L14.43 20.67C14.43 20.67 8.58 25.35 10.53 37.83C21.06 28.86 23.79 25.74 23.79 25.74L16.23 92.44H39.51L33.54 23.2L49.53 33.34C49.53 33.34 49.14 14.23 33.15 13.84L33.16 13.85Z" fill="#52AB47"/><path d="M84.69 39.8107L84.59 39.7207H46.56L30.72 54.5407L30.89 92.4507H66.09L65.97 54.5407L84.69 39.8107Z" fill="#52AB47"/><path d="M103.22 54.4505L84.69 39.8105L65.97 54.4505L66.09 92.4505H103.22V54.4505Z" fill="#F9CF1E"/><path d="M86.51 60.6895C91.05 60.6895 94.74 64.3795 94.74 68.9195V92.4495H78.28V68.9195C78.28 64.3795 81.97 60.6895 86.51 60.6895Z" fill="white"/><path d="M60.3199 62.0195H44.1899V74.6595H60.3199V62.0195Z" fill="#F9CF1E"/><path d="M95.7301 15.8005L93.9801 16.7605C91.0801 18.3505 88.6401 20.6605 86.8801 23.4705L84.9201 26.6005L83.9101 24.7005C82.0101 21.1105 79.0201 18.2205 75.3801 16.4205L74.1101 15.7905L74.9501 15.4105C79.1001 13.5205 82.4501 10.2205 84.4001 6.09047L84.9201 4.98047L85.7001 6.53047C87.6401 10.3805 90.8201 13.4705 94.7201 15.3105L95.7301 15.7905V15.8005Z" fill="#F9CF1E"/></g><defs><clipPath id="clip0_849_14317"><rect width="103.22" height="92.45" fill="white"/></clipPath></defs></svg>