<svg width="99" height="92" viewBox="0 0 99 92" fill="none" xmlns="http://www.w3.org/2000/svg">
<g clip-path="url(#clip0_849_14307)">
<path d="M49.1201 12.4101C56.9701 -0.00987625 73.4101 -3.71988 85.8401 4.13012C98.2701 11.9801 101.97 28.4201 94.1201 40.8501C93.5001 41.8201 92.8301 42.7601 92.0901 43.6401L91.9701 43.7801C91.6401 44.1701 91.3001 44.5401 90.9601 44.9101L49.3801 91.3401L8.25012 45.8801C-2.38988 35.7401 -2.78988 18.8901 7.35012 8.25012C17.4901 -2.38988 34.3401 -2.78988 44.9801 7.35012C46.5601 8.86012 47.9601 10.5601 49.1301 12.4101H49.1201Z" fill="#F93C22"/>
<path d="M78.5099 15.0508C78.5099 15.0508 91.8099 24.1408 74.9599 42.7608C67.5699 50.9308 63.4299 55.4008 63.4299 55.4008" stroke="white" stroke-width="7" stroke-miterlimit="10"/>
<path d="M59.22 59.8301L51.46 68.0401" stroke="white" stroke-width="7" stroke-miterlimit="10"/>
</g>
<defs>
<clipPath id="clip0_849_14307">
<rect width="98.24" height="91.34" fill="white"/>
</clipPath>
</defs>
</svg>
