<svg width="582" height="259" viewBox="0 0 582 259" fill="none" xmlns="http://www.w3.org/2000/svg">
<path d="M443.133 114.167C443.133 102.564 435.879 92.6184 415.774 92.6184H390.073H389.866H387.586V93.4472C387.586 93.4472 389.451 93.6544 389.866 95.312V165.138C389.451 166.796 387.586 167.003 387.586 167.003V167.832H389.866H390.073H405.618H408.105V167.003C408.105 167.003 405.618 166.589 405.618 164.31V138.824H415.359C417.847 139.86 421.785 146.905 431.112 162.652C431.112 162.652 434.428 167.832 440.438 167.832H451.838C440.438 148.562 433.184 135.923 429.453 133.851C436.5 130.536 443.133 123.906 443.133 114.167ZM416.189 127.428H405.825V105.465H416.189C423.65 105.465 427.795 110.023 427.795 115.825C427.588 122.248 422.821 127.428 416.189 127.428Z" fill="#231F20"/>
<path d="M580.964 92.4114H579.72H564.59L552.983 113.753C551.325 116.861 549.252 121.005 547.594 124.32H547.387C545.729 120.798 543.656 116.654 541.79 113.546L530.391 92.6186H514.432H513.188H511.944V93.4474C511.944 93.4474 513.602 93.4474 515.053 96.141L539.096 137.995V164.31C539.096 166.589 536.609 167.003 536.609 167.003V167.832H539.096H554.848H557.335V167.003C557.335 167.003 554.848 166.589 554.848 164.31V138.203L578.891 95.9338C580.342 93.4474 582 93.4474 582 93.4474V92.6186H580.964V92.4114Z" fill="#231F20"/>
<path d="M249.754 93.4474V92.6186H247.267H231.722H229.235V93.4474C229.235 93.4474 231.722 93.8618 231.722 96.141V130.951C231.722 134.059 231.722 139.031 231.929 142.554H231.722C229.649 139.446 227.577 136.545 224.675 132.815L193.378 92.4114H177.626H175.139V93.2402C175.139 93.2402 177.626 93.6546 177.626 95.9338V164.103C177.626 166.382 175.139 166.796 175.139 166.796V167.832H177.626H193.171H195.658V167.003C195.658 167.003 193.171 166.589 193.171 164.31V126.599C193.171 123.284 193.171 118.726 192.963 116.032H193.171C195.451 119.347 197.523 122.248 200.425 125.978L232.966 167.832H247.474H249.961V167.003C249.961 167.003 247.474 166.589 247.474 164.31V95.9338C247.474 93.6546 249.754 93.4474 249.754 93.4474Z" fill="#231F20"/>
<path d="M317.53 105.258V92.4114H256.594V105.258H279.186V164.31C279.186 166.589 276.698 167.003 276.698 167.003V167.832H279.186H294.938H297.425V167.003C297.425 167.003 294.938 166.589 294.938 164.31V105.258H317.53Z" fill="#231F20"/>
<path d="M377.637 154.986H342.609V135.716H373.699V122.87H342.609V105.258H375.357V92.4114H326.857H324.37V93.2402C324.37 93.2402 326.857 93.6546 326.857 95.9338V164.103C326.857 166.382 324.37 166.796 324.37 166.796V167.832H326.857H377.43V154.986H377.637Z" fill="#231F20"/>
<path d="M507.592 105.258V92.4114H459.092H456.604V93.2402C456.604 93.2402 459.092 93.6546 459.092 95.9338V164.103C459.092 166.382 456.604 166.796 456.604 166.796V167.832H459.092H509.872V154.986H474.844V135.716H505.934V122.87H474.844V105.258H507.592Z" fill="#231F20"/>
<path d="M536.817 218.182C533.708 222.119 530.391 224.812 525.831 226.677C523.966 227.506 522.101 227.92 520.443 228.335C521.064 227.92 521.686 227.299 522.308 226.47C524.795 223.569 525.002 219.011 522.722 213.831C522.515 213.002 522.101 212.38 521.893 211.759C521.272 210.308 520.857 208.858 520.443 207.407C521.686 205.128 522.101 203.678 522.101 203.263C522.308 202.02 521.893 200.984 520.857 200.363C520.028 199.741 518.992 199.948 518.163 200.363C517.334 200.984 516.09 202.642 516.919 206.993C516.09 208.443 514.846 210.101 513.396 211.966C513.396 212.173 504.898 222.119 498.265 226.263C496.607 227.299 495.156 227.713 494.12 227.506H493.913C493.498 227.506 493.084 227.299 492.876 226.884C492.669 226.47 492.047 225.434 492.669 222.947C493.291 219.839 496.4 212.587 499.509 205.335C505.105 194.354 509.665 182.751 509.872 182.751C510.287 181.922 509.872 181.093 509.043 180.886C508.214 180.471 507.385 180.886 506.97 181.715C506.556 182.543 501.374 193.732 496.607 204.299C495.985 205.543 495.364 206.579 494.742 207.822C494.742 208.029 487.902 223.155 480.026 228.127C476.71 230.199 473.186 230.614 471.114 228.956C469.041 227.506 468.626 224.605 469.455 220.668C472.357 208.858 482.099 204.507 482.099 204.507C486.037 202.849 488.731 203.885 490.182 207.407C490.596 208.236 491.425 208.651 492.047 208.236C492.876 208.029 493.291 206.993 492.876 206.164C490.804 201.191 486.451 199.327 480.855 201.606C480.648 201.606 478.575 202.642 476.088 204.507C475.881 204.507 475.881 204.507 475.673 204.714C471.114 207.2 467.175 208.443 464.067 209.272C463.652 207.2 462.408 205.957 460.958 205.543C458.263 204.714 455.154 206.164 454.118 208.651C453.496 209.894 453.703 210.93 454.74 211.759C455.776 212.795 457.849 213.002 460.543 212.795C458.056 220.461 448.936 230.407 441.06 229.578C438.78 229.371 437.537 228.335 436.915 226.47C435.257 221.911 438.573 213.416 443.962 208.029C451.009 200.984 454.325 203.056 454.325 203.263C454.947 203.678 455.983 203.678 456.398 203.056C457.02 202.435 456.812 201.399 456.19 200.984C455.776 200.57 451.216 197.047 442.925 204.714C438.366 207.2 434.428 208.443 431.319 209.272C430.904 207.2 429.661 205.957 428.21 205.543C425.515 204.714 422.406 206.164 421.37 208.651C420.955 209.894 421.163 210.93 421.992 211.759C423.028 212.795 425.101 213.002 427.795 212.795C425.308 220.461 416.396 230.407 408.312 229.578C406.032 229.371 404.789 228.335 404.167 226.47C402.509 221.911 405.825 213.416 411.214 208.029C418.261 200.984 421.577 203.056 421.577 203.263C422.199 203.678 423.235 203.678 423.65 203.056C424.272 202.435 424.064 201.399 423.443 200.984C423.235 200.777 418.261 196.633 408.934 205.957C402.509 212.38 398.985 221.911 401.058 227.713C402.094 230.614 404.581 232.479 407.898 232.893C408.312 232.893 408.727 232.893 409.141 232.893C419.09 232.893 428.831 221.083 430.904 212.38C432.977 211.966 435.464 211.137 437.951 210.308C433.806 216.11 431.94 223.155 433.599 227.713C434.635 230.614 437.122 232.479 440.438 232.893C440.853 232.893 441.267 232.893 441.682 232.893C451.631 232.893 461.372 221.083 463.445 212.38C465.517 211.966 468.005 211.137 470.284 210.308C468.419 212.795 466.968 215.903 465.932 219.839C464.274 226.884 466.968 230.199 468.626 231.443C470.077 232.479 471.735 232.893 473.601 232.893C475.881 232.893 478.575 232.064 480.855 230.614C483.757 228.749 486.244 226.055 488.524 222.947C487.902 226.055 488.524 227.92 489.353 228.749C489.975 229.785 491.218 230.407 492.462 230.614C494.327 231.028 496.4 230.407 498.887 228.956C506.141 224.605 514.432 214.452 514.846 214.038C515.675 213.002 516.505 211.966 517.126 210.93C517.334 211.551 517.541 212.38 517.955 213.002C518.163 213.623 518.37 214.245 518.784 215.074C519.821 217.56 521.272 221.911 518.784 224.605C514.432 229.785 508.628 227.713 507.385 227.091C506.556 226.677 505.727 227.091 505.519 227.92C505.105 228.749 505.52 229.578 506.141 229.992C506.556 230.199 514.639 234.343 525.624 229.785C528.733 228.542 533.5 226.055 537.853 220.254C538.267 219.632 538.267 218.596 537.646 218.182C538.267 217.353 537.231 217.353 536.817 218.182ZM424.893 209.272C425.515 208.236 426.966 207.615 428.002 208.029C428.624 208.236 429.039 208.858 429.039 209.479C426.759 209.687 425.515 209.479 424.893 209.272ZM457.434 209.272C458.056 208.236 459.507 207.615 460.543 208.029C461.165 208.236 461.579 208.858 461.579 209.479C459.299 209.687 458.056 209.479 457.434 209.272Z" fill="#231F20"/>
<path d="M158.558 243.875C142.598 255.271 115.239 247.397 95.3419 241.388C91.8184 240.352 88.2949 239.316 85.1859 238.487C87.4658 234.551 89.5385 230.407 91.4038 226.47C91.4038 226.263 95.1346 218.389 100.524 209.479C103.011 207.2 105.083 205.128 106.741 203.263C107.156 202.849 107.571 202.227 107.985 201.813C109.643 199.948 110.472 198.291 110.058 197.255C109.85 196.426 109.229 196.011 108.4 195.804C106.534 195.597 104.876 197.669 104.462 198.291C102.389 201.191 100.316 204.507 98.4509 207.615C95.1346 210.515 90.7821 213.623 84.5641 217.146C69.641 225.227 53.6816 225.434 48.2927 217.353C44.9765 212.38 44.7692 199.534 57.6197 185.651C59.0705 186.687 60.7286 187.723 62.3868 188.552C70.0556 192.696 83.5278 194.975 93.2692 193.525C94.3056 193.525 121.043 190.417 121.043 174.255C121.043 174.048 121.043 170.526 117.934 167.625C121.25 168.454 124.981 168.868 128.712 168.868C140.526 168.868 150.06 164.724 157.107 157.679C163.947 150.842 167.677 140.896 167.677 130.122C167.677 119.555 164.568 110.231 158.143 103.393C151.303 96.141 140.94 91.7898 128.504 91.7898C116.897 91.7898 107.363 95.9338 100.524 102.979C93.4765 110.023 89.7457 119.969 89.7457 131.158C89.7457 142.761 93.891 152.914 101.767 159.959C103.425 161.409 105.083 162.652 106.949 163.688C106.12 163.688 105.291 163.481 104.462 163.481C103.84 163.481 93.891 163.274 82.0769 167.003C81.4551 166.796 80.0043 166.175 80.0043 164.517V95.9338C80.0043 93.6546 82.4915 93.2402 82.4915 93.2402V92.4114H80.0043H65.703L47.2564 120.176C44.9765 123.699 43.3184 126.392 42.0748 129.086C40.4167 126.392 38.7586 123.699 36.6859 120.591L16.7885 92.4114H2.48718H0V93.2402C0 93.2402 2.48718 93.6546 2.48718 95.9338V164.103C2.48718 166.382 0 166.796 0 166.796V167.832H2.48718H18.0321H20.5192V167.003C20.5192 167.003 18.0321 166.589 18.0321 164.31V125.771C18.0321 123.699 18.0321 121.005 17.8248 118.104H18.0321C19.4829 121.005 21.3483 123.284 22.7991 125.356L38.344 147.319H45.5983L59.4851 125.978C60.7286 124.113 63.4231 120.176 64.2521 118.104H64.4594C64.2521 120.798 64.2521 123.491 64.2521 126.185V152.707C58.2415 155.193 50.1581 160.58 49.1218 170.319C48.7073 174.048 50.1581 179.228 55.1325 183.787C41.0385 199.119 41.453 213.209 45.5983 219.218C52.0235 228.749 69.2265 228.956 85.8077 220.047C89.1239 218.182 92.0257 216.524 94.3056 214.867C90.9893 220.875 88.9167 225.434 88.9167 225.434C87.0513 229.578 84.7714 233.929 82.2842 237.866C79.797 237.244 77.3098 236.83 75.2372 236.623C64.2521 235.379 55.3397 238.28 51.1945 244.496C48.9145 247.811 48.7073 251.748 50.3654 254.856C52.0235 257.55 55.1325 259.207 59.0705 259.207C59.2778 259.207 59.6923 259.207 59.8996 259.207C70.0556 258.793 77.7244 250.919 83.7351 241.595C87.0513 242.424 90.7821 243.46 94.7201 244.703C115.239 250.712 143.427 259 160.63 246.568C161.252 246.154 161.459 245.118 161.045 244.496C160.216 243.46 159.18 243.46 158.558 243.875ZM128.504 104.429C141.562 104.429 150.682 114.167 150.682 130.329C150.682 146.698 141.147 156.229 128.504 156.229C115.447 156.229 105.912 146.698 105.912 130.329C106.12 113.96 115.654 104.429 128.504 104.429ZM104.254 166.382C117.727 167.003 117.727 174.048 117.727 174.255C117.727 187.931 92.8547 190.624 92.6474 190.624C82.4915 192.075 69.8483 189.381 63.6303 185.859C61.9722 185.03 60.7286 184.201 59.4851 183.372C77.7244 165.76 104.047 166.382 104.254 166.382ZM52.0235 170.526C52.8526 162.859 58.8633 158.301 64.0449 156.022V164.31C64.0449 166.589 61.5577 167.003 61.5577 167.003V167.832H64.2521H79.3825C72.1282 170.526 64.0449 174.877 57.2051 181.507C51.8162 176.535 52.0235 171.355 52.0235 170.526ZM59.4851 255.892C56.3761 256.099 53.8889 255.063 52.8526 253.199C51.8162 251.334 52.0235 248.433 53.6816 246.154C54.9252 244.496 59.2778 239.316 70.2628 239.316C71.7137 239.316 73.1645 239.316 75.0299 239.523C76.688 239.731 78.5534 240.145 80.6261 240.559C74.8227 248.847 67.9829 255.478 59.4851 255.892Z" fill="#231F20"/>
<path d="M403.959 204.921C404.788 204.921 405.41 204.299 405.41 203.47C405.41 202.642 404.788 202.02 403.959 202.02H391.938C394.011 197.669 397.534 191.66 402.094 186.066C403.337 186.273 404.788 186.48 405.825 186.48C409.97 186.894 413.701 187.309 417.224 187.309C417.431 187.309 421.162 187.309 423.857 186.687C426.758 185.858 429.038 184.201 430.282 181.922C431.111 180.264 431.318 178.606 430.696 176.742C428.624 170.526 420.748 170.94 420.54 170.94C414.944 170.94 408.934 174.048 403.752 179.228C402.716 180.264 401.679 181.507 400.643 182.543C400.229 182.543 399.814 182.543 399.192 182.336C386.964 180.678 370.175 178.399 358.776 182.129C346.132 186.066 342.816 193.939 342.194 199.948C341.573 206.164 344.889 211.344 350.899 213.209C351.728 213.416 352.558 213.002 352.765 212.173C352.972 211.344 352.558 210.515 351.728 210.308C347.169 208.858 344.681 204.921 345.096 200.155C345.511 195.182 348.412 188.552 359.605 185.03C370.175 181.714 386.342 183.786 398.156 185.444C393.389 191.453 390.073 197.876 388.207 202.02H372.455C371.626 202.02 371.004 202.642 371.004 203.47C371.004 204.299 371.626 204.921 372.455 204.921H386.756C386.342 205.957 386.134 206.371 386.134 206.578C377.015 227.091 371.626 234.965 362.092 242.01C355.252 246.775 345.925 249.054 338.671 247.604C334.733 246.775 331.624 244.91 329.966 242.217C329.551 241.595 328.515 241.181 327.893 241.595C327.271 242.01 326.857 243.046 327.478 243.667C329.551 246.982 333.282 249.469 338.049 250.298C339.707 250.712 341.78 250.919 343.645 250.919C350.485 250.919 357.739 248.64 363.75 244.289C373.906 236.83 379.502 228.749 388.829 207.614C388.829 207.614 389.243 206.578 390.073 204.921H403.959ZM406.032 181.3C410.592 176.534 415.981 173.841 420.748 173.841C420.748 173.841 426.551 173.426 427.795 177.57C428.209 178.606 428.002 179.435 427.587 180.264C426.758 181.714 425.1 182.958 423.028 183.579C420.54 184.201 417.224 184.201 417.224 184.201C413.908 184.201 410.177 183.786 406.032 183.372C405.41 183.372 404.996 183.165 404.374 183.165C404.996 182.543 405.41 181.922 406.032 181.3Z" fill="#231F20"/>
<path d="M322.711 192.489H309.861C312.348 187.102 314.213 183.165 314.213 182.958C314.628 182.129 314.213 181.3 313.592 180.886C312.763 180.471 311.934 180.886 311.519 181.715C311.312 182.129 309.239 186.687 306.545 192.489H292.243C291.414 192.489 290.792 193.111 290.792 193.939C290.792 194.768 291.414 195.39 292.243 195.39H305.094C302.399 201.191 299.498 207.615 297.425 212.173C297.218 212.38 297.218 212.38 297.218 212.587C292.451 222.119 281.258 231.028 272.553 228.542C271.517 228.335 270.273 227.713 269.237 226.677C272.346 224.812 275.04 222.74 276.698 221.29C276.906 221.083 282.295 216.524 284.782 211.966C286.233 209.479 286.647 206.579 286.233 204.507C285.818 202.849 284.782 201.606 283.331 200.777C279.807 198.912 272.346 200.155 267.372 207.822C264.055 213.002 263.641 217.767 263.641 220.254C263.641 222.533 264.263 224.191 264.884 225.641C261.154 227.506 257.008 228.749 252.863 228.749C251.619 228.749 250.583 228.335 250.169 227.92C249.754 227.299 249.754 226.47 249.961 226.055C250.376 224.398 251.619 222.326 252.863 220.047C254.314 217.353 255.972 214.245 256.801 211.551C257.423 209.479 258.252 205.543 256.801 202.849C255.972 201.606 254.936 200.777 253.278 200.363C249.132 199.534 245.194 200.984 242.085 204.507C241.878 203.678 241.671 203.056 241.256 202.435C240.427 201.191 238.769 199.948 235.453 199.948C231.722 199.948 228.82 201.606 226.126 204.299C226.54 203.471 226.955 202.642 227.162 202.02C227.577 201.191 227.162 200.363 226.333 199.948C225.504 199.534 224.675 199.948 224.26 200.777C222.81 204.507 219.701 211.137 216.799 217.146C216.592 217.353 216.592 217.353 216.384 217.56C213.69 222.119 206.85 228.127 202.705 227.506C201.669 227.299 200.839 227.091 200.425 226.677C200.218 226.263 200.01 225.641 200.218 224.605C200.425 223.155 201.047 221.704 201.876 220.047C202.912 217.56 203.948 215.074 203.948 212.587C203.948 211.966 203.948 208.443 200.425 206.786C198.145 205.75 196.487 204.921 195.451 203.885V203.678C196.694 200.777 195.658 199.327 195.243 198.705C194.622 198.083 193.585 197.876 192.756 198.083C191.72 198.498 191.098 199.327 190.891 200.777C190.684 202.227 191.098 203.471 191.72 204.507C189.854 208.443 185.295 217.56 178.248 224.605C177.004 225.848 173.273 228.956 170.372 228.542C169.335 228.335 169.335 226.47 169.335 225.434C169.542 222.326 171.201 217.56 172.859 213.002C173.273 212.173 173.688 211.551 174.102 210.723C177.004 205.128 178.869 201.399 178.869 200.363C178.869 200.155 178.869 199.741 178.869 199.534C178.662 198.912 177.833 198.498 177.211 198.498C176.589 198.498 175.346 198.705 171.201 209.272C170.993 209.894 170.579 210.723 170.372 211.551C163.946 222.947 157.314 229.163 151.303 228.956C149.438 228.956 147.987 228.335 147.365 227.299C146.122 225.641 146.329 222.533 147.78 218.596C149.023 215.074 151.303 209.687 155.241 203.885C155.656 203.263 156.07 202.849 156.278 202.435C156.485 202.227 156.692 201.813 156.899 201.606C157.314 200.984 157.314 199.948 156.485 199.534C155.863 199.119 154.827 199.119 154.412 199.948C154.412 200.155 154.205 200.155 154.205 200.363C153.998 200.57 153.998 200.777 153.79 200.984C153.79 200.984 153.79 200.984 153.79 201.191C153.583 201.606 153.376 201.813 153.169 202.227C151.303 203.056 149.852 204.507 147.158 205.957C144.463 207.2 141.769 208.029 139.489 208.443C139.075 206.164 137.624 204.921 136.173 204.507C133.478 203.678 130.577 205.128 129.333 207.822C128.919 208.858 129.126 210.101 129.955 210.93C131.198 211.966 133.478 212.38 136.173 212.173C134.1 219.011 124.151 230.821 115.654 229.992C113.374 229.785 111.923 228.749 111.094 226.677C109.436 221.911 112.752 213.002 118.555 207.407C126.017 200.155 129.333 202.435 129.54 202.435C130.162 203.056 131.198 202.849 131.613 202.227C132.235 201.606 132.028 200.57 131.406 200.155C131.198 199.948 126.017 195.597 116.275 205.335C109.643 211.966 105.912 221.911 108.192 227.713C109.228 230.821 111.716 232.686 115.239 233.1C115.654 233.1 116.068 233.1 116.483 233.1C126.846 233.1 137.831 219.425 139.282 211.759C142.183 211.137 145.292 210.101 147.987 208.858C146.122 212.38 144.878 215.488 144.049 217.975C142.183 223.155 142.183 226.884 144.049 229.578C145.292 231.443 147.572 232.479 150.474 232.686C150.681 232.686 150.681 232.686 150.889 232.686C156.692 232.686 162.081 228.335 166.434 222.74C166.226 223.776 166.019 224.812 166.019 225.641C165.604 231.028 168.506 231.857 169.75 232.064C174.724 232.686 179.906 227.506 180.113 227.299C186.953 220.254 191.513 211.759 193.585 207.407C195.036 208.443 196.901 209.272 198.56 210.101C200.425 210.93 200.425 212.795 200.425 213.002C200.425 213.002 200.425 213.002 200.425 213.209C200.425 215.074 199.596 217.353 198.767 219.425C198.145 221.083 197.316 222.947 197.109 224.812C196.901 226.677 197.109 228.127 197.938 229.163C198.767 230.199 200.218 231.028 202.083 231.235C205.399 231.65 209.13 229.578 212.239 227.091C211.41 228.749 210.995 229.785 210.995 229.785C210.581 230.614 210.995 231.443 211.617 231.857C212.446 232.271 213.275 231.857 213.69 231.235C213.69 231.235 217.835 222.533 222.395 215.074C227.369 206.786 230.686 203.678 235.245 203.678C236.904 203.678 237.94 204.092 238.354 204.921C239.184 206.164 239.184 208.236 238.147 210.723C236.904 213.416 235.66 216.317 234.416 219.011C233.38 221.083 232.344 223.155 231.515 225.019C230.893 226.47 230.271 227.92 229.649 228.749C228.82 230.407 228.406 231.65 229.649 232.271C230.271 232.686 231.1 232.686 231.929 231.235C233.38 228.542 235.245 224.605 236.904 220.461V220.254C238.562 216.939 240.013 213.623 240.634 211.966C243.329 206.164 247.681 203.263 252.034 204.299C252.656 204.507 253.278 204.714 253.485 205.335C254.107 206.579 254.107 208.858 253.278 211.551C252.448 214.245 250.998 216.939 249.547 219.632C248.303 222.119 247.06 224.398 246.438 226.47C246.023 228.127 246.231 229.785 247.267 231.028C248.096 231.857 249.547 233.1 252.241 233.1C257.008 233.1 261.775 231.65 265.921 229.578C267.786 231.65 269.859 232.479 271.31 232.893C272.553 233.307 273.797 233.307 275.04 233.307C281.673 233.307 288.305 228.956 293.28 223.776C292.865 226.677 293.28 229.163 294.523 231.028C295.352 232.479 297.218 234.136 300.741 234.136C312.555 234.136 320.639 220.875 320.846 220.254C321.26 219.632 321.053 218.596 320.224 218.182C319.602 217.767 318.566 217.975 318.151 218.803C318.151 219.011 310.69 231.235 300.534 231.235C298.669 231.235 297.425 230.614 296.803 229.578C295.56 227.506 295.767 223.776 297.425 219.632C298.876 216.11 303.85 205.543 307.788 196.84H322.089C322.919 196.84 323.54 196.219 323.54 195.39C324.369 193.111 323.54 192.489 322.711 192.489ZM132.235 208.858C132.857 207.822 134.307 207.2 135.344 207.615C136.173 207.822 136.38 208.443 136.587 209.065C134.515 209.272 132.857 209.065 132.235 208.858ZM266.542 220.461C266.542 218.389 266.957 214.245 269.651 209.894C272.968 204.921 277.113 203.471 279.6 203.471C280.429 203.471 281.051 203.678 281.466 203.885C282.295 204.299 282.709 204.921 282.916 205.75C283.331 206.993 282.916 209.065 281.88 210.93C279.6 214.867 274.419 219.425 274.419 219.425C272.76 220.875 270.273 222.947 267.164 224.605C266.75 223.362 266.542 222.119 266.542 220.461Z" fill="#231F20"/>
<path d="M419.919 67.7545C420.54 67.7545 421.162 67.3401 421.577 66.7185C421.991 65.8897 421.369 64.8537 420.54 64.6465C380.331 49.5209 338.049 41.8545 294.938 41.8545C251.827 41.8545 209.545 49.5209 169.335 64.6465C168.506 65.0609 168.092 65.8897 168.299 66.7185C168.713 67.5473 169.543 67.9617 170.372 67.7545C210.166 52.8361 252.034 45.1697 294.938 45.1697C337.634 45.1697 379.502 52.8361 419.504 67.7545C419.504 67.7545 419.711 67.7545 419.919 67.7545Z" fill="#231F20"/>
<path d="M108.814 46.4128L120.836 40.1968L121.665 44.3408L115.032 47.656L117.727 52.836L124.152 49.5208L126.017 53.0432L119.592 56.3584L124.359 65.6824L120.007 67.9616L108.814 46.4128Z" fill="#231F20"/>
<path d="M128.919 36.4672L135.344 33.7736C137.21 32.9448 138.868 32.5304 140.111 32.7376C143.013 32.7376 144.878 34.6024 145.915 36.8816C147.158 39.7824 146.329 42.6832 144.257 44.3408C145.086 44.3408 146.536 45.1696 148.609 46.8272L154.827 51.8L149.853 53.872L144.671 49.728C142.598 48.0704 141.562 47.656 140.94 47.656L139.282 48.2776L143.013 56.7728L138.66 58.6376L128.919 36.4672ZM139.489 43.9264C140.526 43.512 140.94 43.0976 141.355 42.476C141.977 41.6472 142.184 40.404 141.562 39.1608C140.94 37.9176 140.111 37.0888 138.868 37.0888C138.246 37.0888 137.624 37.0888 136.588 37.5032L134.93 38.332L137.624 44.7552L139.489 43.9264Z" fill="#231F20"/>
<path d="M153.584 26.1072L166.227 21.5488L166.434 25.9L159.595 28.3864L161.667 33.7736L168.507 31.2872L169.958 35.0168L163.118 37.5032L165.191 43.512L173.274 40.6112L174.725 44.548L162.289 49.1064L153.584 26.1072Z" fill="#231F20"/>
<path d="M181.772 36.0529C183.43 36.6745 185.295 36.8817 187.368 36.2601C189.026 35.8457 190.684 34.6025 190.062 32.7377C188.819 28.5937 179.492 31.9089 177.419 24.6569C176.383 21.1345 178.041 17.1977 182.808 15.7473C185.088 15.1257 187.368 15.1257 188.819 15.3329L190.062 19.6841C187.782 19.2697 185.917 19.2697 184.052 19.6841C182.601 20.0985 181.564 20.9273 181.979 22.5849C183.223 26.5217 192.549 23.2065 194.622 30.6657C195.866 35.0169 193.171 38.5393 188.404 39.9897C185.71 40.8185 183.015 40.8185 180.735 39.9897L181.772 36.0529Z" fill="#231F20"/>
<path d="M199.39 11.6032L204.157 10.5672L206.229 20.0984L216.8 17.8192L214.727 8.28795L219.494 7.25195L224.676 31.08L219.909 32.116L217.629 22.1704L207.058 24.4496L209.338 34.3952L204.571 35.4312L199.39 11.6032Z" fill="#231F20"/>
<path d="M230.064 5.38722L234.832 4.76562L237.941 24.864L246.024 23.6208L246.646 27.7648L234.002 29.6296L230.064 5.38722Z" fill="#231F20"/>
<path d="M255.558 16.7831L246.231 2.90069L251.413 2.48629L257.631 12.2247L261.776 1.45029L266.958 1.03589L260.325 16.5759L261.155 26.1071L256.387 26.5215L255.558 16.7831Z" fill="#231F20"/>
<path d="M287.892 0L295.768 0.2072C303.851 0.4144 308.411 5.18 308.411 12.432C308.204 19.8912 302.815 24.6568 294.939 24.6568L287.685 24.4496L287.892 0ZM294.939 20.3056C300.742 20.3056 303.022 16.576 303.022 12.2248C303.022 7.252 300.328 4.144 294.939 4.144H292.452L292.244 20.3056H294.939Z" fill="#231F20"/>
<path d="M317.323 0.621582L330.588 1.65758L329.137 5.59438L321.883 5.17998L321.468 10.9816L328.723 11.396L328.515 15.54L321.261 15.1256L320.846 21.3416L329.344 21.9632L329.137 26.1072L315.872 25.0712L317.323 0.621582Z" fill="#231F20"/>
<path d="M339.707 2.6936L344.474 3.3152L341.987 23.4136L350.071 24.4496L349.656 28.5936L336.806 26.936L339.707 2.6936Z" fill="#231F20"/>
<path d="M360.848 5.59448L365.615 6.42328L361.47 30.4585L356.703 29.6297L360.848 5.59448Z" fill="#231F20"/>
<path d="M388.415 34.3951C385.513 35.2239 382.819 35.2239 380.539 34.6023C372.87 32.9447 370.176 26.9359 371.627 19.8911C373.077 13.0535 379.088 8.70229 386.55 10.3599C389.037 10.9815 390.902 11.8103 392.353 12.8463L391.317 17.4047C389.659 15.9543 388 14.9183 385.721 14.5039C380.746 13.4679 377.637 16.5759 376.601 20.9271C375.565 25.6927 377.637 29.4223 381.99 30.4583C384.27 31.0799 386.135 30.6655 388 30.0439L388.415 34.3951Z" fill="#231F20"/>
<path d="M400.022 14.0896L404.582 15.3328L397.949 38.7464L393.39 37.5032L400.022 14.0896Z" fill="#231F20"/>
<path d="M410.178 29.6297C412.665 22.5849 418.883 19.4769 425.516 21.7561C432.148 24.0353 435.05 30.4585 432.563 37.5033C430.075 44.5481 423.857 47.6561 417.225 45.3769C410.592 43.0977 407.691 36.6745 410.178 29.6297ZM427.588 35.6385C429.246 30.6657 427.795 26.9361 424.065 25.6929C420.334 24.4497 416.81 26.3145 415.152 31.2873C413.494 36.2601 414.945 39.9897 418.676 41.2329C422.199 42.6833 425.723 40.8185 427.588 35.6385Z" fill="#231F20"/>
<path d="M437.744 48.0703C437.744 46.6199 437.951 44.9623 438.78 43.0975L444.791 29.2151L449.144 31.0799L443.133 44.7551C442.719 45.9983 442.511 47.0343 442.511 48.0703C442.719 49.9351 443.755 51.1783 445.62 52.0071C447.486 52.8359 449.351 52.6287 450.595 51.5927C451.424 50.9711 452.045 50.1423 452.46 48.8991L458.471 35.2239L462.823 37.0887L456.813 50.9711C455.983 52.8359 454.947 54.2863 453.911 55.1151C451.216 57.3943 447.9 57.3943 443.962 55.7367C440.231 54.0791 437.951 51.5927 437.744 48.0703Z" fill="#231F20"/>
<path d="M464.274 58.4305C465.103 60.0881 466.347 61.5385 468.212 62.3673C469.87 63.1961 471.736 63.4033 472.565 61.7457C474.637 57.8089 465.518 53.8721 469.041 47.2417C470.699 43.9265 474.637 42.2689 479.197 44.7553C481.477 45.7913 482.928 47.4489 483.757 48.6921L481.684 52.6289C480.441 50.7641 478.99 49.5209 477.332 48.4849C476.088 47.8633 474.637 47.6561 473.808 49.1065C471.943 52.8361 480.855 56.7729 477.332 63.6105C475.259 67.5473 470.699 68.1689 466.554 66.0969C464.067 64.8537 462.201 62.9889 461.165 60.7097L464.274 58.4305Z" fill="#231F20"/>
<path d="M555.263 215.695C550.703 215.695 546.972 219.425 546.972 223.983C546.972 228.542 550.703 232.271 555.263 232.271C559.823 232.271 563.553 228.542 563.553 223.983C563.346 219.218 559.823 215.695 555.263 215.695ZM555.263 230.821C551.532 230.821 548.423 227.713 548.423 223.983C548.423 220.254 551.532 217.146 555.263 217.146C558.994 217.146 562.103 220.254 562.103 223.983C562.103 227.713 558.994 230.614 555.263 230.821ZM557.543 224.812C557.335 224.605 556.921 224.398 556.714 224.191C557.543 223.983 557.957 223.776 558.372 223.362C558.786 222.947 558.994 222.326 558.994 221.704C558.994 221.29 558.786 220.668 558.579 220.254C558.372 219.839 557.957 219.632 557.543 219.425C557.128 219.218 556.506 219.218 555.47 219.218H551.739V227.713H553.397V224.191H553.812C554.226 224.191 554.434 224.191 554.641 224.191C554.848 224.191 555.056 224.398 555.263 224.605C555.47 224.812 555.677 225.227 556.092 225.848L557.335 227.713H559.408L558.372 226.055C557.957 225.641 557.75 225.019 557.543 224.812ZM554.848 222.947H553.605V220.875H554.848C555.47 220.875 555.885 220.875 556.092 220.875C556.299 220.875 556.506 221.083 556.714 221.29C556.921 221.497 556.921 221.704 556.921 221.911C556.921 222.119 556.921 222.326 556.714 222.533C556.506 222.74 556.506 222.74 556.299 222.947C556.092 222.947 555.677 222.947 554.848 222.947Z" fill="#231F20"/>
</svg>
