<svg width="98" height="93" viewBox="0 0 98 93" fill="none" xmlns="http://www.w3.org/2000/svg">
<g clip-path="url(#clip0_849_14312)">
<path d="M12.6401 62.3398C22.1401 74.0798 39.6101 80.3998 39.6201 80.4098C45.2701 82.9798 55.5501 83.0898 55.5501 83.0898L55.4901 74.8198C55.4901 74.8198 43.8601 77.8398 40.9601 75.8298C47.8901 67.7798 39.4001 58.9498 25.2001 56.4898C12.2401 54.2398 0.72008 41.8498 1.61008 35.5898C1.18008 38.5998 0.33008 41.4698 0.13008 44.5498C-0.10992 48.1798 -0.00992021 51.8298 0.38008 55.4398C1.20008 63.1198 3.27008 70.8698 7.18008 77.5798C11.0901 84.2898 16.7201 89.4298 24.1001 91.4898C28.0901 92.5998 32.9501 93.3698 36.6601 91.0398C38.1701 90.0898 39.5501 88.6898 40.0901 86.9598C40.4601 85.7898 40.4201 82.6698 38.9101 82.1198C34.0301 80.3398 19.1701 74.7498 12.6401 62.3598V62.3398Z" fill="#71A134"/>
<path d="M49.0101 12.0793C34.1201 14.6193 20.0501 26.7493 20.0501 26.7493C20.0501 26.7493 20.0501 26.7493 20.0401 26.7493C15.0401 30.4093 9.90015 39.3193 9.90015 39.3193L17.1401 43.3193C17.1401 43.3193 20.2001 31.7093 23.3801 30.1593C27.0001 40.1393 38.8601 37.0593 47.9601 25.8793C56.2601 15.6793 72.7101 11.6993 77.7301 15.5493C65.3901 2.85933 21.3601 -11.0907 12.4701 13.7693C10.7301 18.6293 12.9701 26.9893 19.2001 25.2393C23.1401 21.8593 35.0001 11.7093 49.0101 12.0893V12.0793Z" fill="#8CCC27"/>
<path d="M75.7001 67.0894C81.8801 53.3094 80.5601 39.7295 80.1401 35.0495C79.3101 27.5095 74.8401 19.4395 74.8401 19.4395L67.4901 23.2295C67.4901 23.2295 75.4301 32.2395 74.9501 35.7395C64.6401 33.1895 60.6001 44.7595 64.8201 58.5395C68.6701 71.1095 62.8101 86.9894 56.8201 89.0194C58.3501 88.4995 59.9701 88.2694 61.5001 87.7094C63.2901 87.0594 65.0201 86.2795 66.7101 85.4095C70.5501 83.4395 74.1701 81.0395 77.5501 78.3595C84.5501 72.8095 90.9501 65.8395 94.6201 57.6095C97.5201 51.1095 98.3901 43.6095 95.2501 37.0095C93.9601 34.2895 91.6401 32.3995 88.6701 31.8095C86.1501 31.3095 83.2301 31.8695 81.8101 34.2195C82.4201 39.3795 83.8201 55.6694 75.7101 67.0894H75.7001Z" fill="#43932C"/>
</g>
<defs>
<clipPath id="clip0_849_14312">
<rect width="97.23" height="92.55" fill="white"/>
</clipPath>
</defs>
</svg>
