<svg width="1754" height="230" viewBox="0 0 1754 230" fill="none" xmlns="http://www.w3.org/2000/svg">
<path d="M877.001 230C528.398 230 217.045 144.647 6.52439 13.639C4.96948 12.6913 3.48219 11.6422 1.96108 10.4577C0.000551261 8.90087 -0.506483 6.09187 0.541388 3.75667C1.48785 1.2861 3.92161 -0.439917 6.6596 0.101578C8.48492 0.507699 10.6145 1.15072 12.2032 1.69222C245.54 80.9874 547.902 125.762 876.967 125.762C1206.03 125.762 1508.39 80.9874 1741.8 1.69222C1743.29 1.15072 1745.41 0.507699 1747.38 0.101578C1749.98 -0.439917 1752.38 1.31994 1753.56 3.75667C1754.37 6.05802 1754.07 8.86703 1751.8 10.4238C1750.48 11.6083 1748.96 12.6575 1747.44 13.6051C1536.89 144.748 1225.5 229.966 876.967 229.966L877.001 230Z" fill="#8DC63F"/>
</svg>
