<svg width="97" height="33" viewBox="0 0 97 33" fill="none" xmlns="http://www.w3.org/2000/svg">
<g clip-path="url(#clip0_376_6378)">
<path d="M64.8603 22.8779C64.0134 22.8779 63.3554 22.9943 62.746 23.2365C60.4075 24.1751 59.2448 27.0604 59.3382 29.2981C59.4336 31.5808 60.8842 32.9625 63.2246 32.9981C64.6696 33.0206 65.9837 32.4744 66.9315 31.4869C68.0979 30.2705 68.7765 28.3933 68.7017 26.5911C68.6045 24.2652 67.1539 22.876 64.8603 22.876V22.8779ZM61.617 29.4877C61.473 27.7681 62.3516 24.5956 64.6154 24.391C64.6621 24.3872 64.7051 24.3872 64.7481 24.3853C66.0716 24.4285 66.3763 25.645 66.4361 26.3771C66.5763 28.0591 65.6753 31.2992 63.4526 31.5001C63.4096 31.5038 63.3704 31.5038 63.3293 31.5057C61.9347 31.4607 61.6656 30.0865 61.6151 29.4877H61.617Z" fill="white"/>
<path d="M88.5802 23.3529C88.154 23.0901 87.5876 22.923 86.9875 22.8817C86.8641 22.8742 86.7389 22.8723 86.6118 22.8742C85.9276 22.861 85.2098 22.9981 84.4938 23.2872C82.3927 24.1357 80.9514 26.2663 80.8205 28.7161C80.7551 29.9514 81.0897 31.0233 81.7889 31.8192C82.4263 32.5438 83.3479 32.8855 84.3125 32.9606C84.3125 32.9606 84.4975 32.9775 84.7891 32.9756C85.4135 32.985 86.8361 32.9043 87.8455 32.1008C88.3671 31.6859 88.5222 30.7436 88.1072 30.2161L88.1035 30.2198C88.1035 30.2198 88.1035 30.2161 88.1016 30.2161C88.1016 30.2161 86.7856 31.2898 85.2939 31.3555C85.1163 31.3518 84.935 31.3405 84.7462 31.3067C83.1572 31.0214 83.0264 29.4952 83.0264 29.0803C83.1273 29.0803 83.2283 29.0822 83.3292 29.0803C85.464 29.0841 87.3707 28.5115 88.4381 27.5485C89.1223 26.9309 89.5317 26.3658 89.6008 25.3014C89.6868 23.9667 88.5858 23.3529 88.5802 23.351V23.3529ZM83.174 27.7193C83.5068 26.2588 84.4358 25.324 84.7929 25.0724C85.3406 24.6895 86.5706 24.1056 87.3258 24.6838C87.5128 24.8265 87.6249 25.1325 87.6025 25.4216C87.5576 25.9848 87.0884 26.5573 86.3108 26.9966C85.2284 27.6067 84.1087 27.7231 83.4451 27.7306C83.3348 27.7306 83.2413 27.725 83.1703 27.7212L83.174 27.7193Z" fill="white"/>
<path d="M11.4138 17.1993C11.2736 17.1993 11.1371 17.1993 11.0044 17.1993C9.01917 17.1993 7.79849 17.4658 7.79849 17.4658L5.13281 32.6715H6.46191C7.09936 32.6715 7.53678 32.3692 7.66951 31.609C7.77232 31.0233 8.54249 26.6136 8.59296 26.332C9.13133 26.3621 9.62483 26.3809 10.1987 26.379C13.7916 26.3696 15.9469 24.1113 16.3638 21.8717C16.9564 18.686 14.3711 17.2331 11.4101 17.2011L11.4138 17.1993ZM8.89953 24.5975L9.89402 18.9132C9.89402 18.9132 10.2903 18.8081 11.0194 18.8006C11.1353 18.8006 11.2586 18.8062 11.3895 18.8118C12.8345 18.8888 14.3954 19.5552 13.9262 21.7966C13.7299 22.7334 13.0513 23.6532 12.2531 24.1169C11.0904 24.7927 9.33135 24.6519 8.89766 24.5956L8.89953 24.5975Z" fill="white"/>
<path d="M44.8543 22.9962C43.0168 22.8498 41.9681 24.0324 41.2914 25.1193C41.2222 24.436 41.0016 23.9048 40.6315 23.535C40.2707 23.1764 39.7679 22.9981 39.1865 22.9849C37.5938 22.953 36.5675 23.9817 35.7862 25.3878C35.7936 25.3334 35.803 25.277 35.8105 25.2245C35.9469 24.2295 35.8927 23.8541 35.5936 23.4636C35.5936 23.4636 35.3244 23.0713 34.5524 23.1032C34.2739 23.0938 33.9206 23.1389 33.4757 23.2947C33.7299 23.5819 33.7299 24.13 33.4925 25.8027C33.4775 25.9115 32.3821 32.2172 32.3821 32.2172C32.3821 32.2172 32.3111 32.6452 32.756 32.6452H34.4701C34.4701 32.6452 34.6945 31.318 34.7356 31.1021C34.9281 30.2217 35.0777 29.3093 35.6217 28.0253C36.7395 25.3897 38.4855 24.3046 39.0164 24.9091C39.1958 25.1137 39.2183 25.6224 39.1117 26.3302L38.0836 32.2153C38.0836 32.2153 38.0125 32.6433 38.4574 32.6433H40.1698L40.3903 31.3593C40.7567 29.1554 41.2745 27.9089 41.2745 27.9089C42.2615 25.5305 43.5906 24.5318 44.1589 24.7232C44.2973 24.7702 44.5403 24.9035 44.6431 25.3502C44.701 25.6262 44.7048 26.0786 44.6207 26.5817C44.5291 27.2744 44.0916 29.2005 43.8916 30.6459C43.7552 31.6409 43.8094 32.0163 44.1085 32.4068C44.1085 32.4068 44.3776 32.7991 45.1497 32.7672C45.4282 32.7766 45.7815 32.7316 46.2264 32.5757C45.9722 32.2885 45.9423 31.6765 46.2021 30.0565C46.361 29.0691 46.5872 28.0122 46.5872 28.0122C46.9069 26.4484 47.0153 25.1118 46.6788 24.2896C46.2675 23.2853 45.2974 23.03 44.8581 22.9962H44.8543Z" fill="white"/>
<path d="M77.1508 22.9981C75.3319 22.8535 74.1804 24.0024 73.3747 25.4122C73.3841 25.3502 73.3934 25.2864 73.4028 25.2263C73.5392 24.2314 73.4626 23.7752 73.1859 23.4655C72.6532 22.8685 71.5147 23.1407 71.0679 23.2984C71.3222 23.5856 71.3222 24.1338 71.0848 25.8064C71.053 26.0336 71.0156 26.2757 70.9745 26.4991H70.9782L69.9856 32.2191C69.9856 32.2191 69.9146 32.6471 70.3595 32.6471H72.0699C72.0699 32.6471 72.2942 31.3199 72.3354 31.104C72.5279 30.2236 72.7485 29.2849 73.2812 27.9972C74.386 25.3277 76.0124 24.513 76.5152 24.7383C76.719 24.8303 76.8722 25.0367 76.9377 25.3521C76.9956 25.6281 76.9994 26.0805 76.9152 26.5836C76.8236 27.2763 76.3862 29.2023 76.1862 30.6478C76.0497 31.6428 76.104 32.0182 76.403 32.4087C76.403 32.4087 76.6722 32.801 77.4443 32.7691C77.7228 32.7785 78.0761 32.7334 78.521 32.5776C78.2668 32.2904 78.2369 31.6784 78.4967 30.0584C78.6556 29.0709 78.8818 28.014 78.8818 28.014C79.2014 26.4503 79.3173 25.11 78.9734 24.2915C78.5528 23.289 77.5452 23.03 77.1527 22.9999L77.1508 22.9981Z" fill="white"/>
<path d="M24.6865 23.3679C24.0472 23.4073 23.2527 23.4768 23.2527 23.4768L23.0583 24.6069C22.9966 24.956 22.92 25.3371 22.8433 25.7126C22.6844 26.3395 22.4732 27.0323 22.118 27.8714C21.0002 30.507 19.5047 31.2729 18.942 31.1509C18.757 31.1115 18.5607 30.9519 18.4616 30.5164C18.4037 30.2405 18.3999 29.788 18.484 29.2849C18.5756 28.5922 19.0131 26.6662 19.2149 25.2207C19.3514 24.2258 19.2972 23.8503 18.9981 23.4599C18.9981 23.4599 18.7289 23.0675 17.9569 23.0994C17.6783 23.09 17.325 23.1351 16.8801 23.2909C17.1344 23.5781 17.1643 24.1901 16.9044 25.8102C16.7455 26.7976 16.6708 27.0116 16.5194 27.8545C16.3474 28.8138 16.1698 29.8406 16.239 30.7849C16.3268 31.9544 17.1325 32.756 18.2485 32.8686C20.0094 33.0469 21.2151 31.8605 22.0171 30.4939C22.0096 30.5427 22.0021 30.5934 21.9946 30.6403C21.8582 31.6352 21.9124 32.0107 22.2115 32.4012C22.2115 32.4012 22.4807 32.7935 23.2527 32.7616C23.5312 32.771 23.8846 32.7259 24.3295 32.5701C24.0752 32.2829 24.0752 31.7347 24.3126 30.0621C24.3444 29.835 24.3818 29.5928 24.4229 29.3694H24.4192L25.0454 25.7219L25.3277 24.1131C25.4006 23.7077 25.2641 23.3322 24.6846 23.3679H24.6865Z" fill="white"/>
<path d="M57.4297 23.3679C56.7903 23.4073 55.9959 23.4768 55.9959 23.4768L55.8015 24.6069C55.7398 24.956 55.6631 25.3371 55.5865 25.7126C55.4276 26.3395 55.2164 27.0323 54.8612 27.8714C53.7433 30.507 52.2479 31.2729 51.6852 31.1509C51.5001 31.1115 51.3038 30.9519 51.2048 30.5164C51.1468 30.2405 51.1431 29.788 51.2272 29.2849C51.3188 28.5922 51.7562 26.6662 51.9581 25.2207C52.0946 24.2258 52.0404 23.8503 51.7413 23.4599C51.7413 23.4599 51.4721 23.0675 50.7 23.0994C50.4215 23.09 50.0682 23.1351 49.6233 23.2909C49.8775 23.5781 49.9074 24.1901 49.6476 25.8102C49.4887 26.7976 49.4139 27.0116 49.2625 27.8545C49.0905 28.8138 48.913 29.8406 48.9821 30.7849C49.07 31.9544 49.8757 32.756 50.9917 32.8686C52.7526 33.0469 53.9583 31.8605 54.7602 30.4939C54.7528 30.5427 54.7453 30.5934 54.7378 30.6403C54.6014 31.6352 54.6556 32.0107 54.9547 32.4012C54.9547 32.4012 55.2238 32.7935 55.9959 32.7616C56.2744 32.771 56.6277 32.7259 57.0726 32.5701C56.8184 32.2829 56.8184 31.7347 57.0558 30.0621C57.0876 29.835 57.125 29.5928 57.1661 29.3694H57.1623L57.7886 25.7219L58.0708 24.1131C58.1437 23.7077 58.0073 23.3322 57.4278 23.3679H57.4297Z" fill="white"/>
<path d="M31.4161 17.066C31.3638 17.066 31.3021 17.0697 31.2292 17.0848L29.5038 17.4433L27.154 30.8186C27.0363 31.5827 27.0811 31.8887 27.2288 32.189C27.3728 32.4481 27.5989 32.5964 27.8457 32.6771C28.1111 32.7616 28.3859 32.7804 28.6252 32.7747C29.0795 32.7879 29.4459 32.6865 29.4459 32.6865C29.4459 32.6865 29.2122 31.9525 29.4066 30.7961L31.6891 17.7925C31.7545 17.4208 31.7919 17.066 31.418 17.0679L31.4161 17.066Z" fill="white"/>
<path d="M48.5006 12.7578C29.2221 12.7578 12.0036 8.02335 0.361357 0.756559C0.275368 0.703996 0.193117 0.645801 0.108997 0.580098C0.000575 0.493745 -0.0274651 0.337934 0.0304844 0.208404C0.0828259 0.0713659 0.217418 -0.0243734 0.368835 0.00566247C0.469779 0.0281894 0.587547 0.0638569 0.675406 0.0938928C13.5795 4.49227 30.3007 6.97585 48.4987 6.97585C66.6967 6.97585 83.418 4.49227 96.3257 0.0938928C96.408 0.0638569 96.5258 0.0281894 96.6342 0.00566247C96.7781 -0.0243734 96.9109 0.0732431 96.9763 0.208404C97.0211 0.336057 97.0043 0.491868 96.8791 0.578221C96.8062 0.643924 96.7221 0.702119 96.6379 0.754681C84.9938 8.02899 67.7735 12.7559 48.4987 12.7559L48.5006 12.7578Z" fill="#8DC63F"/>
</g>
<defs>
<clipPath id="clip0_376_6378">
<rect width="97" height="33" fill="white"/>
</clipPath>
</defs>
</svg>
