<svg width="118" height="40" viewBox="0 0 118 40" fill="none" xmlns="http://www.w3.org/2000/svg">
<g clip-path="url(#clip0_1091_5232)">
<path d="M78.8184 27.7308C77.7926 27.7308 76.9956 27.8719 76.2574 28.1654C73.4246 29.3031 72.0161 32.8005 72.1294 35.5128C72.2449 38.2797 74.002 39.9545 76.8371 39.9977C78.5875 40.025 80.1793 39.3629 81.3274 38.166C82.7404 36.6915 83.5624 34.416 83.4718 32.2316C83.354 29.4123 81.5969 27.7285 78.8184 27.7285V27.7308ZM74.8897 35.7426C74.7153 33.6583 75.7796 29.8128 78.5218 29.5648C78.5784 29.5602 78.6305 29.5602 78.6826 29.558C80.2858 29.6103 80.6549 31.0848 80.7273 31.9722C80.8971 34.011 79.8057 37.9384 77.1133 38.1819C77.0612 38.1864 77.0137 38.1864 76.9639 38.1887C75.2746 38.1341 74.9486 36.4685 74.8874 35.7426H74.8897Z" fill="#231F20"/>
<path d="M107.552 28.3064C107.036 27.9878 106.349 27.7853 105.623 27.7352C105.473 27.7261 105.321 27.7239 105.167 27.7261C104.339 27.7102 103.469 27.8763 102.602 28.2267C100.057 29.2552 98.3108 31.8379 98.1523 34.8073C98.0731 36.3046 98.4784 37.6038 99.3253 38.5686C100.097 39.4469 101.214 39.8611 102.382 39.9521C102.382 39.9521 102.606 39.9726 102.96 39.9703C103.716 39.9817 105.439 39.8838 106.662 38.9099C107.294 38.4071 107.482 37.2648 106.979 36.6254L106.974 36.6299C106.974 36.6299 106.974 36.6254 106.972 36.6254C106.972 36.6254 105.378 37.927 103.571 38.0066C103.356 38.002 103.136 37.9884 102.908 37.9474C100.983 37.6016 100.824 35.7516 100.824 35.2488C100.947 35.2488 101.069 35.251 101.191 35.2488C103.777 35.2533 106.087 34.5593 107.38 33.392C108.209 32.6434 108.704 31.9585 108.788 30.6683C108.892 29.0505 107.559 28.3064 107.552 28.3041V28.3064ZM101.003 33.5991C101.406 31.8288 102.532 30.6956 102.964 30.3907C103.628 29.9265 105.118 29.2188 106.032 29.9197C106.259 30.0926 106.395 30.4635 106.368 30.8139C106.313 31.4966 105.745 32.1906 104.803 32.723C103.492 33.4625 102.135 33.6036 101.332 33.6127C101.198 33.6127 101.085 33.6059 100.999 33.6013L101.003 33.5991Z" fill="#231F20"/>
<path d="M14.0772 20.8477C13.9073 20.8477 13.742 20.8477 13.5812 20.8477C11.1764 20.8477 9.69779 21.1708 9.69779 21.1708L6.46875 39.6019H8.07874C8.8509 39.6019 9.38077 39.2355 9.54155 38.314C9.66609 37.604 10.599 32.259 10.6602 31.9177C11.3123 31.9541 11.9101 31.9768 12.6053 31.9746C16.9575 31.9632 19.5683 29.2258 20.0733 26.5112C20.7911 22.6498 17.6594 20.8886 14.0726 20.8499L14.0772 20.8477ZM11.0315 29.8152L12.2362 22.9251C12.2362 22.9251 12.7162 22.7977 13.5994 22.7886C13.7398 22.7886 13.8892 22.7954 14.0477 22.8023C15.7981 22.8956 17.6889 23.7033 17.1205 26.4202C16.8827 27.5557 16.0608 28.6706 15.0939 29.2327C13.6854 30.0518 11.5546 29.8812 11.0293 29.8129L11.0315 29.8152Z" fill="#231F20"/>
<path d="M54.5839 27.8743C52.3579 27.6969 51.0876 29.1304 50.2679 30.4479C50.1841 29.6196 49.9169 28.9757 49.4686 28.5274C49.0315 28.0928 48.4224 27.8766 47.7182 27.8607C45.7889 27.822 44.5457 29.069 43.5992 30.7733C43.6083 30.7073 43.6196 30.639 43.6287 30.5753C43.794 29.3693 43.7283 28.9142 43.366 28.4409C43.366 28.4409 43.0399 27.9654 42.1047 28.004C41.7673 27.9927 41.3394 28.0473 40.8004 28.2361C41.1084 28.5843 41.1084 29.2487 40.8208 31.2761C40.8027 31.4081 39.4757 39.0513 39.4757 39.0513C39.4757 39.0513 39.3897 39.5701 39.9286 39.5701H42.0051C42.0051 39.5701 42.2768 37.9614 42.3266 37.6997C42.5599 36.6325 42.741 35.5267 43.4 33.9703C44.7541 30.7755 46.869 29.4603 47.5121 30.193C47.7295 30.441 47.7567 31.0577 47.6276 31.9155L46.3822 39.049C46.3822 39.049 46.2961 39.5678 46.8351 39.5678H48.9093L49.1765 38.0114C49.6203 35.3401 50.2475 33.8292 50.2475 33.8292C51.4431 30.9462 53.0531 29.7357 53.7415 29.9677C53.9091 30.0246 54.2034 30.1862 54.328 30.7277C54.3982 31.0622 54.4027 31.6106 54.3008 32.2204C54.1899 33.0601 53.66 35.3947 53.4177 37.1468C53.2524 38.3528 53.3181 38.8078 53.6804 39.2811C53.6804 39.2811 54.0064 39.7567 54.9416 39.718C55.279 39.7294 55.707 39.6748 56.2459 39.4859C55.938 39.1378 55.9017 38.396 56.2165 36.4323C56.409 35.2354 56.683 33.9543 56.683 33.9543C57.0702 32.0589 57.2015 30.4388 56.7939 29.4421C56.2957 28.2248 55.1205 27.9153 54.5884 27.8743H54.5839Z" fill="#231F20"/>
<path d="M93.706 27.8762C91.5027 27.701 90.1078 29.0936 89.1319 30.8025C89.1432 30.7274 89.1545 30.65 89.1659 30.5772C89.3312 29.3712 89.2383 28.8183 88.9032 28.4428C88.2578 27.7192 86.8788 28.0492 86.3376 28.2403C86.6456 28.5885 86.6456 29.2529 86.358 31.2803C86.3195 31.5556 86.2742 31.8492 86.2244 32.1199H86.2289L85.0265 39.0532C85.0265 39.0532 84.9405 39.572 85.4794 39.572H87.5513C87.5513 39.572 87.8231 37.9633 87.8729 37.7016C88.1061 36.6344 88.3733 35.4967 89.0187 33.9357C90.3569 30.7001 92.327 29.7125 92.9361 29.9856C93.1829 30.0971 93.3686 30.3474 93.4478 30.7296C93.518 31.0641 93.5226 31.6125 93.4207 32.2223C93.3097 33.062 92.7798 35.3966 92.5376 37.1487C92.3723 38.3547 92.4379 38.8097 92.8002 39.283C92.8002 39.283 93.1263 39.7586 94.0615 39.7199C94.3989 39.7313 94.8269 39.6767 95.3658 39.4878C95.0578 39.1397 95.0216 38.3979 95.3364 36.4342C95.5288 35.2373 95.8028 33.9562 95.8028 33.9562C96.19 32.0608 96.3304 30.4361 95.9138 29.444C95.4043 28.2289 94.1838 27.9149 93.7083 27.8785L93.706 27.8762Z" fill="#231F20"/>
<path d="M30.1538 28.3247C29.3793 28.3725 28.417 28.4567 28.417 28.4567L28.1815 29.8265C28.1067 30.2497 28.0139 30.7116 27.921 31.1667C27.7286 31.9267 27.4727 32.7664 27.0425 33.7835C25.6883 36.9782 23.8768 37.9066 23.1952 37.7587C22.9711 37.7109 22.7333 37.5175 22.6133 36.9896C22.5431 36.6551 22.5386 36.1067 22.6405 35.4969C22.7514 34.6573 23.2813 32.3226 23.5258 30.5706C23.6911 29.3646 23.6255 28.9095 23.2632 28.4362C23.2632 28.4362 22.9371 27.9606 22.0019 27.9993C21.6645 27.9879 21.2365 28.0425 20.6976 28.2314C21.0056 28.5795 21.0418 29.3213 20.727 31.285C20.5346 32.4819 20.444 32.7413 20.2606 33.763C20.0522 34.9258 19.8371 36.1704 19.9209 37.315C20.0273 38.7326 21.0033 39.7042 22.3551 39.8407C24.4882 40.0569 25.9488 38.6188 26.9202 36.9623C26.9111 37.0214 26.9021 37.0829 26.893 37.1398C26.7277 38.3457 26.7934 38.8008 27.1557 39.2741C27.1557 39.2741 27.4818 39.7497 28.417 39.711C28.7544 39.7224 29.1823 39.6678 29.7213 39.4789C29.4133 39.1308 29.4133 38.4663 29.7009 36.4389C29.7394 36.1636 29.7847 35.8701 29.8345 35.5993H29.8299L30.5885 31.1781L30.9304 29.228C31.0188 28.7366 30.8535 28.2815 30.1515 28.3247H30.1538Z" fill="#231F20"/>
<path d="M69.8178 28.3247C69.0434 28.3725 68.081 28.4567 68.081 28.4567L67.8455 29.8265C67.7708 30.2497 67.6779 30.7116 67.5851 31.1667C67.3926 31.9267 67.1368 32.7664 66.7065 33.7835C65.3524 36.9782 63.5409 37.9066 62.8593 37.7587C62.6351 37.7109 62.3974 37.5175 62.2773 36.9896C62.2072 36.6551 62.2026 36.1067 62.3045 35.4969C62.4155 34.6573 62.9453 32.3226 63.1899 30.5706C63.3552 29.3646 63.2895 28.9095 62.9272 28.4362C62.9272 28.4362 62.6012 27.9606 61.666 27.9993C61.3286 27.9879 60.9006 28.0425 60.3617 28.2314C60.6696 28.5795 60.7058 29.3213 60.3911 31.285C60.1986 32.4819 60.108 32.7413 59.9246 33.763C59.7163 34.9258 59.5012 36.1704 59.585 37.315C59.6914 38.7326 60.6674 39.7042 62.0192 39.8407C64.1523 40.0569 65.6128 38.6188 66.5842 36.9623C66.5752 37.0214 66.5661 37.0829 66.5571 37.1398C66.3918 38.3457 66.4574 38.8008 66.8197 39.2741C66.8197 39.2741 67.1458 39.7497 68.081 39.711C68.4184 39.7224 68.8464 39.6678 69.3853 39.4789C69.0774 39.1308 69.0774 38.4663 69.3649 36.4389C69.4034 36.1636 69.4487 35.8701 69.4985 35.5993H69.494L70.2526 31.1781L70.5945 29.228C70.6828 28.7366 70.5175 28.2815 69.8155 28.3247H69.8178Z" fill="#231F20"/>
<path d="M38.3047 20.686C38.2413 20.686 38.1666 20.6906 38.0783 20.7088L35.9882 21.1434L33.1419 37.3559C32.9992 38.282 33.0536 38.6529 33.2324 39.017C33.4068 39.331 33.6808 39.5108 33.9797 39.6086C34.3012 39.711 34.6341 39.7338 34.924 39.7269C35.4742 39.7429 35.918 39.62 35.918 39.62C35.918 39.62 35.635 38.7303 35.8705 37.3286L38.6353 21.5666C38.7146 21.1161 38.7599 20.686 38.307 20.6883L38.3047 20.686Z" fill="#231F20"/>
<path d="M58.9995 15.4638C35.6467 15.4638 14.7893 9.72512 0.686544 0.916883C0.582381 0.853171 0.482747 0.782632 0.380849 0.702992C0.249514 0.598321 0.215547 0.40946 0.285744 0.252454C0.349147 0.0863469 0.512185 -0.0297007 0.695601 0.00670639C0.817879 0.0340117 0.960537 0.0772451 1.06696 0.113652C16.6982 5.44501 36.9533 8.45542 58.9972 8.45542C81.0412 8.45542 101.296 5.44501 116.932 0.113652C117.032 0.0772451 117.174 0.0340117 117.306 0.00670639C117.48 -0.0297007 117.641 0.0886223 117.72 0.252454C117.774 0.407184 117.754 0.596046 117.602 0.700716C117.514 0.780357 117.412 0.850895 117.31 0.914608C103.205 9.73195 82.3455 15.4615 58.9972 15.4615L58.9995 15.4638Z" fill="#8DC63F"/>
</g>
<defs>
<clipPath id="clip0_1091_5232">
<rect width="117.5" height="40" fill="white" transform="translate(0.25)"/>
</clipPath>
</defs>
</svg>
