<svg width="689" height="480" fill="none" xmlns="http://www.w3.org/2000/svg"><g clip-path="url(#clip0_742_2508)"><path d="M77.7293 257.277C77.7293 257.277 91.5292 238.361 94.6688 234.05C101.188 225.093 128.955 213.15 128.955 213.15L122.873 198.806C122.873 198.806 93.8552 212.043 85.0413 218.589C79.8155 222.472 59.9346 252.381 59.9346 252.381L77.7293 257.267V257.277Z" fill="#2F88D1"/><path d="M229.11 266.15C234.66 249.489 252.694 217.545 238.821 214.768C224.949 211.991 204.139 235.595 202.752 224.487C201.365 213.38 219.4 164.774 212.463 139.782C205.527 114.791 192.342 116.179 185.406 128.675C178.469 141.171 160.435 102.295 159.047 68.9621C157.66 35.6294 140.314 6.47234 116.73 23.1335C97.3081 34.2409 76.4989 21.0456 66.7775 12.0261C57.0561 3.00648 11.2861 -10.1784 15.448 21.7555C19.6098 53.6894 54.2919 60.6315 51.5174 75.9147C48.7428 91.1979 9.89886 98.1296 14.0607 120.355C18.2226 142.58 76.4989 139.793 84.8226 155.066C93.1463 170.338 58.4642 181.446 61.2388 199.506C64.0133 217.566 125.064 210.613 129.226 228.663C133.388 246.712 102.868 245.324 112.579 268.927C122.29 292.531 181.953 298.084 180.566 324.475C179.179 350.866 177.791 339.748 197.213 352.244C216.635 364.739 263.813 349.467 263.813 349.467L229.131 266.15H229.11Z" fill="#378142"/><path d="M322.716 105.468C343.024 82.1261 370.812 113.016 351.306 133.696C369.31 134.625 385.623 148.27 372.752 175.6C419.387 191.113 369.956 237.244 369.956 237.244L225.199 268.092C225.199 268.092 205.089 243.069 190.851 211.793C176.039 180.318 191.748 148.259 218.847 148.426C201 110.886 243.244 93.9747 256.522 107.233C251.943 73.4719 302.532 52.3844 323.613 106.794" fill="#6EBA42"/><path d="M77.5312 55.9548C77.5312 55.9548 173.963 155.932 188.524 307.292" stroke="#6CAA3C" stroke-width="9" stroke-miterlimit="10"/><path d="M130.947 285.672L223.332 198.284L323.3 285.672V470.594H132.22L130.947 285.672Z" fill="#FCF1C3"/><path d="M571.728 136.296C571.728 136.296 563.404 44.6491 547.445 49.5033C531.486 54.3576 533.572 90.4673 550.219 136.985C537.035 114.071 524.549 89.0788 505.816 100.886C487.854 112.202 516.914 143.937 534.26 155.734C568.254 164.064 603.635 174.483 603.635 174.483C603.635 174.483 677.86 57.1449 661.911 43.9496C645.963 30.7543 609.883 106.439 590.461 134.907C599.484 95.332 625.894 13.1432 602.258 2.29674C586.039 -5.13606 572.426 2.99618 571.738 64.7865C571.321 101.637 571.738 136.296 571.738 136.296H571.728Z" fill="#204C10"/><path d="M546.496 369.782C546.496 369.782 602.686 299.661 612.397 368.393C630.432 332.294 706.743 325.341 675.524 355.897C644.305 386.453 668.942 371.515 678.298 375.335C695.29 382.278 692.87 412.823 665.114 419.776C637.358 426.728 622.098 428.806 634.594 436.437C647.09 444.068 629.045 465.594 610.311 471.147C577.705 469.759 514.578 469.759 514.578 469.759L546.486 369.782H546.496Z" fill="#127753"/><path d="M503.636 200.184L223.332 198.284L323.3 285.672H505.639L503.636 200.184Z" fill="#FFE576"/><path d="M323.3 285.672V470.594H509.968L505.639 285.672H323.3Z" fill="#F9CF1E"/><path d="M481.544 469.895C481.544 469.895 470.727 283.636 466.284 236.607C461.423 185.225 487.343 154.679 523.173 153.291C559.242 151.892 586.55 160.233 605.033 171.341C646.86 196.489 636.252 237.996 622.379 268.541C608.506 299.087 546.068 469.884 546.068 469.884H481.554L481.544 469.895Z" fill="#F88312"/><mask id="mask0_742_2508" style="mask-type:luminance" maskUnits="userSpaceOnUse" x="465" y="153" width="170" height="317"><path d="M481.544 469.895C481.544 469.895 470.727 283.636 466.284 236.607C461.423 185.225 487.343 154.679 523.173 153.291C559.242 151.892 586.55 160.233 605.033 171.341C646.86 196.489 636.252 237.996 622.379 268.541C608.506 299.087 546.068 469.884 546.068 469.884H481.554L481.544 469.895Z" fill="white"/></mask><g mask="url(#mask0_742_2508)"><path d="M547.352 236.962C547.352 236.962 604.46 252.193 633.718 248.07" stroke="#FFC45C" stroke-width="9" stroke-miterlimit="10"/><path d="M506.108 264.198C506.108 264.198 555.581 279.429 591.817 281.12" stroke="#FFC45C" stroke-width="9" stroke-miterlimit="10"/></g><path d="M129.091 221.658C129.091 221.658 130.478 218.589 131.845 214.81C132.95 211.751 134.421 209.924 136.038 210.927C137.342 211.741 135.965 214.392 136.09 215.478C139.063 208.661 142.932 203.097 146.374 205.477C150.38 208.265 151.527 214.111 140.919 228.256C130.572 242.057 129.091 221.648 129.091 221.648V221.658Z" fill="#E9B3A9"/><path d="M81.6936 203.494C81.6936 203.494 94.7737 233.068 83.0808 234.561C76.3217 235.428 77.0102 239.071 77.0102 239.071L75.7585 246.973L61.2285 246.368L62.9704 204.287L81.6936 203.494Z" fill="#E9B3A9"/><path d="M76.6035 242.255C63.805 236.263 50.704 239.134 48.6283 251.285C46.5526 263.436 78.0012 272.967 89.5584 278.364C122.509 293.752 139.271 233.695 140.314 229.185C134.421 224.675 129.216 220.854 129.216 220.854C129.216 220.854 107.019 248.623 100.427 257.308C90.372 253.832 79.5866 243.654 76.6139 242.265L76.6035 242.255Z" fill="#4391EF"/><path d="M13.0182 434.693C13.0182 434.693 2.60839 452.398 0.188464 458.297C-2.23146 464.195 20.3093 474.613 28.9772 477.046C37.6451 479.478 62.7622 482.255 63.6593 477.046C65.0466 469.06 55.6798 472.181 47.0119 465.594C38.344 459.007 35.9136 452.753 39.3766 446.5C42.8396 440.247 13.0182 434.693 13.0182 434.693Z" fill="black"/><path d="M109.438 448.932C109.438 448.932 109.094 472.191 109.438 474.968C109.782 477.745 157.649 477.056 167.016 475.667C176.382 474.279 167.714 463.861 153.143 461.084C141.69 458.902 141.001 438.169 141.001 438.169L109.438 448.932Z" fill="black"/><path d="M34.7621 315.689C34.7621 315.689 25.0511 327.496 25.3954 341.725C25.6457 352.185 30.6003 378.179 30.6003 384.421C30.6003 390.664 7.36067 429.551 9.09216 436.493C10.8237 443.435 29.9014 450.722 38.5798 452.465C47.2581 454.208 56.6144 419.832 62.8624 406.636C69.1104 393.441 63.5613 367.405 63.9055 357.342C69.1104 369.149 87.1451 375.391 94.4257 384.766C101.706 394.14 95.4584 449.333 108.643 453.853C121.827 458.374 150.084 453.258 149.229 444.134C148.186 433.027 131.215 366.048 119.053 353.876C105.868 340.681 83.3275 315 83.3275 315L34.7621 315.699V315.689Z" fill="#3F1D06"/><path d="M39.8658 265.284C39.8658 265.284 32.9294 306.592 30.499 318.055C39.8658 325.341 85.8548 318.055 85.8548 318.055C85.8548 318.055 85.156 294.096 85.5106 282.644C85.7088 275.942 89.3282 272.581 85.8548 263.207C82.3814 253.832 46.4476 251.744 39.8658 265.284Z" fill="#4391EF"/><path d="M45.624 213.735C45.624 213.735 46.1456 225.541 41.2849 231.262C36.4242 236.983 10.0658 243.758 11.2862 262.33C12.5066 280.901 42.6722 289.065 53.9477 275.525C65.2233 261.985 59.1527 238.726 64.8791 225.364C70.6056 212.002 81.8707 202.45 73.3801 201.583C64.8895 200.717 50.3179 195.508 45.6345 213.735H45.624Z" fill="black"/><path d="M44.1845 219.936C40.346 208.682 46.3437 196.458 57.588 192.616C68.8323 188.774 81.0466 194.777 84.8851 206.03L44.1845 219.946V219.936Z" fill="white"/><path d="M69.9062 211.302C70.4278 210.958 97.485 205.227 100.781 202.627C104.077 200.028 82.9133 202.805 82.9133 202.805L69.9062 211.313V211.302Z" fill="white"/></g><defs><clipPath id="clip0_742_2508"><rect width="689" height="480" fill="white"/></clipPath></defs></svg>