<svg width="50" height="50" viewBox="0 0 50 50" fill="none" xmlns="http://www.w3.org/2000/svg">
<mask id="mask0_639_2256" style="mask-type:luminance" maskUnits="userSpaceOnUse" x="0" y="0" width="50" height="50">
<path d="M50 0H0V50H50V0Z" fill="white"/>
</mask>
<g mask="url(#mask0_639_2256)">
<path d="M24.9993 47.6335C37.886 47.6335 48.3327 37.1868 48.3327 24.3001C48.3327 11.4135 37.886 0.966797 24.9993 0.966797C12.1127 0.966797 1.66602 11.4135 1.66602 24.3001C1.66602 37.1868 12.1127 47.6335 24.9993 47.6335Z" fill="#8DC63F"/>
<path d="M24.9992 28.2001C16.7992 28.2001 9.47695 26.2001 4.53251 23.1223C4.49918 23.1001 4.46584 23.0778 4.4214 23.0445C4.37695 23.0112 4.36584 22.9445 4.38806 22.8889C4.41029 22.8334 4.46584 22.7889 4.53251 22.8001C4.57695 22.8001 4.6214 22.8223 4.66584 22.8334C10.1547 24.7001 17.2658 25.7445 24.9992 25.7445C32.7325 25.7445 39.8436 24.6889 45.3325 22.8334C45.3658 22.8223 45.4214 22.8001 45.4658 22.8001C45.5325 22.7889 45.5881 22.8334 45.6103 22.8889C45.6325 22.9445 45.6214 23.0112 45.5658 23.0445C45.5325 23.0667 45.4992 23.1001 45.4658 23.1223C40.5103 26.2001 33.1881 28.2001 24.9992 28.2001Z" fill="white"/>
</g>
</svg>
