<svg width="50" height="50" viewBox="0 0 50 50" fill="none" xmlns="http://www.w3.org/2000/svg">
<mask id="mask0_673_6819" style="mask-type:luminance" maskUnits="userSpaceOnUse" x="0" y="0" width="50" height="50">
<path d="M50 0H0V50H50V0Z" fill="white"/>
</mask>
<g mask="url(#mask0_673_6819)">
<path d="M48.523 38.2886C48.523 41.1441 37.9896 43.4664 25.0007 43.4664C12.0119 43.4664 1.47852 41.1441 1.47852 38.2886" fill="#62A135"/>
<path d="M25.0007 40.9774C37.9917 40.9774 48.523 39.7338 48.523 38.1997C48.523 36.6655 37.9917 35.4219 25.0007 35.4219C12.0098 35.4219 1.47852 36.6655 1.47852 38.1997C1.47852 39.7338 12.0098 40.9774 25.0007 40.9774Z" fill="#80B35C"/>
<path d="M43.4781 7.92188H6.58919C5.30053 7.92188 4.25586 8.96654 4.25586 10.2552V36.6441C4.25586 37.9328 5.30053 38.9774 6.58919 38.9774H43.4781C44.7668 38.9774 45.8114 37.9328 45.8114 36.6441V10.2552C45.8114 8.96654 44.7668 7.92188 43.4781 7.92188Z" fill="white"/>
<path d="M41.5903 10.189C41.5903 10.189 41.4903 32.1112 41.5348 33.0001C41.5792 33.889 41.4792 35.2334 40.4348 35.3223H38.1348" stroke="#F8F8F8" stroke-width="3" stroke-miterlimit="10"/>
<path d="M11.6672 8.88896C13.0357 8.88896 14.145 8.39648 14.145 7.78897C14.145 7.18145 13.0357 6.68896 11.6672 6.68896C10.2988 6.68896 9.18945 7.18145 9.18945 7.78897C9.18945 8.39648 10.2988 8.88896 11.6672 8.88896Z" fill="white"/>
<path d="M20.4231 8.88896C21.7915 8.88896 22.9009 8.39648 22.9009 7.78897C22.9009 7.18145 21.7915 6.68896 20.4231 6.68896C19.0547 6.68896 17.9453 7.18145 17.9453 7.78897C17.9453 8.39648 19.0547 8.88896 20.4231 8.88896Z" fill="white"/>
<path d="M29.1789 8.78887C30.5474 8.78887 31.6567 8.29638 31.6567 7.68887C31.6567 7.08135 30.5474 6.58887 29.1789 6.58887C27.8105 6.58887 26.7012 7.08135 26.7012 7.68887C26.7012 8.29638 27.8105 8.78887 29.1789 8.78887Z" fill="white"/>
<path d="M37.9446 8.7332C39.313 8.7332 40.4224 8.24072 40.4224 7.6332C40.4224 7.02569 39.313 6.5332 37.9446 6.5332C36.5761 6.5332 35.4668 7.02569 35.4668 7.6332C35.4668 8.24072 36.5761 8.7332 37.9446 8.7332Z" fill="white"/>
</g>
</svg>
