<svg width="50" height="50" viewBox="0 0 50 50" fill="none" xmlns="http://www.w3.org/2000/svg">
<g clip-path="url(#clip0_639_2309)">
<mask id="mask0_639_2309" style="mask-type:luminance" maskUnits="userSpaceOnUse" x="0" y="0" width="50" height="50">
<path d="M50 0H0V50H50V0Z" fill="white"/>
</mask>
<g mask="url(#mask0_639_2309)">
<path d="M45.9555 19.3779H4.17773V48.5224H45.9555V19.3779Z" fill="#4C4C4C"/>
<path d="M2.57812 18.2334V26.7334L9.97813 18.2334H2.57812Z" fill="black"/>
<path d="M17.5226 18.2334L10.0781 26.8001H17.6337L25.0781 18.2334H17.5226Z" fill="#1C1C1C"/>
<path d="M25.0773 18.2334L17.6328 26.8001H25.1884L32.6328 18.2334H25.0773Z" fill="#C9C9C9"/>
<path d="M9.97812 18.2334L2.57812 26.7334V26.8001H10.0781L17.5226 18.2334H9.97812Z" fill="#C9C9C9"/>
<path d="M47.5456 18.3667L40.2012 26.8H47.5456V18.3667Z" fill="#1C1C1C"/>
<path d="M32.6339 18.2334L25.1895 26.8001H32.745L40.1783 18.2334H32.6339Z" fill="#1C1C1C"/>
<path d="M47.5441 18.2334H40.1775L32.7441 26.8001H40.1997L47.5441 18.3667V18.2334Z" fill="#C9C9C9"/>
<path d="M44.3895 1.64453L46.3228 9.9112L37.1895 3.32231L44.3895 1.64453Z" fill="#1C1C1C"/>
<path d="M29.8347 5.04443L39.0347 11.6778L31.6791 13.4L22.4902 6.76666L29.8347 5.04443Z" fill="#1C1C1C"/>
<path d="M22.4903 6.7666L31.6792 13.3999L24.3237 15.1222L15.1348 8.47771L22.4903 6.7666Z" fill="#C9C9C9"/>
<path d="M37.1895 3.32227L46.3229 9.91115L46.334 9.97782L39.034 11.6778L29.834 5.04449L37.1895 3.32227Z" fill="#C9C9C9"/>
<path d="M15.1349 8.47803L24.3237 15.1225L16.9682 16.8336L7.7793 10.2002L15.1349 8.47803Z" fill="#1C1C1C"/>
<path d="M7.77869 10.2002L16.9676 16.8335L9.70091 18.5335L3.26758 11.3446L7.77869 10.2002Z" fill="#C9C9C9"/>
<path d="M16.3224 26.8556H2.61133V10.8223H5.33355L16.3224 26.8556Z" fill="black"/>
</g>
</g>
<defs>
<clipPath id="clip0_639_2309">
<rect width="50" height="50" fill="white"/>
</clipPath>
</defs>
</svg>
